<?xml version="1.0" standalone="no"?>
<!DOCTYPE svg PUBLIC "-//W3C//DTD SVG 1.1//EN" "http://www.w3.org/Graphics/SVG/1.1/DTD/svg11.dtd" >
<svg xmlns="http://www.w3.org/2000/svg">
<metadata></metadata>
<defs>
<font id="sf_minced_meat_extendedOb" horiz-adv-x="2026" >
<font-face units-per-em="2048" ascent="1638" descent="-410" />
<missing-glyph horiz-adv-x="1613" />
<glyph horiz-adv-x="2048" />
<glyph horiz-adv-x="2048" />
<glyph unicode="&#xd;" horiz-adv-x="2048" />
<glyph unicode=" "  horiz-adv-x="1613" />
<glyph unicode="&#x09;" horiz-adv-x="1613" />
<glyph unicode="&#xa0;" horiz-adv-x="1613" />
<glyph unicode="!" horiz-adv-x="942" d="M195 -27l84 281l464 104l-51 -319zM396 466q15 55 30.5 115.5t32.5 126.5t47 244.5t74 469.5l383 99l-257 -1002z" />
<glyph unicode="&#x22;" horiz-adv-x="852" d="M427 1123l21 254l230 84l-124 -297zM813 1498l230 55l-75 -275l-145 -30z" />
<glyph unicode="#" horiz-adv-x="1495" d="M311 845l58 104q67 16 131.5 31.5t127.5 31.5q17 45 33 84.5t31 77.5q-61 -18 -128.5 -39t-145.5 -44l16 88q57 14 126.5 32t156.5 40l19.5 57t6.5 21q7 30 15 69l182 44q-5 -19 -19 -54t-36 -89l128 36q-23 -9 147 42l14 65q7 33 4 68l215 55q-5 -22 -12 -53.5 t-18 -74.5q66 19 131.5 40t137.5 44l-32 -103q-79 -20 -144 -36t-117 -29q-10 -35 -19 -76t-19 -89q94 26 177 49t159 45l-34 -106l-320 -84l-5 -41q-5 -38 -8 -64t-2 -40l-259 -78q4 9 16.5 50.5t34.5 116.5l-291 -75l-13 -45q-13 -46 -18 -83l-209 -72q12 34 27 72t33 83z M797 1056l198 52l94 27q10 26 22 66.5t29 97.5l-179 -51q-104 -26 -114 -54q-5 -14 -17.5 -47.5t-32.5 -90.5z" />
<glyph unicode="$" horiz-adv-x="2324" d="M149 56l267 299q184 -124 547 -63q3 12 25.5 114.5t67.5 298.5q-225 -48 -338 -51q-158 0 -193 80q-30 73 16 189q56 152 243 287q88 60 195 114t239 103l32 135l272 83l-24 -128q381 108 630 72l-220 -234q-175 36 -446 -32l-5 -24q-3 -26 -9 -60.5t-14 -79.5 q-12 -66 -18.5 -103.5t-8.5 -46.5l33 6q315 81 483 81q233 -4 310 -156q11 -28 17.5 -60.5t7.5 -70.5q15 -520 -1000 -761q-10 -75 -19 -146.5t-17 -140.5l-402 -55q-2 -5 14 60.5t49 206.5q-274 -45 -443 -28q-168 22 -291 111zM869 988q-35 -116 242 -56l68 310 q-140 -49 -213 -107q-72 -57 -97 -147zM1302 367q401 104 420 290q17 188 -357 116q-6 -38 -21.5 -138t-41.5 -268z" />
<glyph unicode="%" horiz-adv-x="2439" d="M230 -27q180 185 386 408t445 491q192 217 342 389t259 304l281 -12q-122 -140 -284 -330.5t-369 -437.5q-224 -269 -397 -482.5t-300 -377.5zM426 992q42 99 170 197q132 99 289 146q160 47 257 11q101 -35 78 -136q-25 -105 -174 -224q-149 -117 -330 -162 q-176 -44 -255 9q-77 54 -35 159zM606 1036q-12 -36 8 -56t65 -20q29 0 71 11q81 21 146 70q67 49 82 97q10 45 -35 63q-44 18 -120 -3q-77 -23 -137 -70q-62 -48 -80 -92zM1215 445q32 150 205 292q173 144 404 198q244 60 419 -10q180 -72 190 -229q10 -176 -188 -355 q-197 -177 -491 -225q-285 -48 -427 58q-144 106 -112 271zM1523 498q-12 -75 62 -122q74 -45 205 -21q140 27 229 109q92 83 93 166q2 77 -81 115q-78 37 -201 11q-115 -24 -206 -102q-90 -76 -101 -156z" />
<glyph unicode="&#x26;" horiz-adv-x="2304" d="M271 295q111 288 513 475q-229 36 -160 222q53 137 289 279q208 123 461 198q297 89 494 45l201 131l210 -60l-595 -378l-183 71l42 29q-76 24 -241 -24q-112 -31 -214 -98q-100 -65 -119 -134q-20 -66 55 -91q72 -25 198 4l263 69l-42 -233q-32 -4 -63 -9.5t-63 -13.5 q-206 -48 -377 -128q-225 -110 -259 -227q-37 -115 113 -147q136 -24 336 15q184 36 352 140l-143 51l264 229l697 -184l-385 -255l-54 21q-336 -220 -732 -287q-408 -65 -657 -2q-291 69 -201 292z" />
<glyph unicode="'" horiz-adv-x="589" d="M462 1174l6 256l236 84l-110 -295z" />
<glyph unicode="(" horiz-adv-x="1053" d="M296 292q-19 211 66 505q66 235 198 427q61 88 147 185.5t199 206.5l275 -3q-212 -209 -319 -374q-54 -84 -93 -180t-64 -207q-51 -243 -20 -413q37 -194 216 -430l-398 -275q-185 307 -207 558z" />
<glyph unicode=")" horiz-adv-x="1111" d="M102 -135q151 156 259.5 288.5t180.5 247.5q142 228 193 471q47 219 13 336q-35 120 -146 219l264 174q159 -108 218 -251q56 -148 23 -415q-36 -281 -177 -549q-81 -143 -203.5 -306t-292.5 -355z" />
<glyph unicode="*" horiz-adv-x="1504" d="M329 876q81 35 181 86t227 118q-90 6 -164.5 9t-137.5 2l147 169q73 -7 143.5 -13.5t137.5 -12.5q8 36 16 86.5t17 116.5l267 61q-33 -81 -60 -211q100 57 194.5 112.5t185.5 110.5l162 -80q-94 -45 -201.5 -99.5t-234.5 -120.5q124 -5 226.5 -4t189.5 9l-178 -215 q-141 21 -383 48q-14 -116 -9 -242l-338 -101q14 52 33 121t44 157q-103 -60 -189 -113t-159 -102z" />
<glyph unicode="+" horiz-adv-x="1321" d="M226 669l73 179q67 14 167 38t240 58q21 81 38 154.5t32 143.5l285 96l-67 -319q152 38 272.5 71t214.5 60l-35 -189q-112 -24 -231.5 -51t-253.5 -58l-12 -72q-20 -107 -29 -174t-5 -96l-350 -99q20 66 45 158t56 213q-146 -36 -255.5 -64.5t-184.5 -48.5z" />
<glyph unicode="," horiz-adv-x="783" d="M60 -230l426 585l286 15l-478 -657z" />
<glyph unicode="-" horiz-adv-x="1167" d="M222 684l71 181q430 103 636 156q114 29 210 55.5t180 49.5l-35 -189q-176 -32 -485 -108q-167 -38 -309 -74t-268 -71z" />
<glyph unicode="." horiz-adv-x="1019" d="M254 -24l88 314l464 72l-51 -321z" />
<glyph unicode="/" horiz-adv-x="1196" d="M-12 -251q115 179 420 658.5t799 1258.5l296 54q-134 -217 -288.5 -476.5t-334.5 -569.5q-88 -150 -222.5 -394t-319.5 -587z" />
<glyph unicode="0" horiz-adv-x="2092" d="M377 208q-107 203 0 476q89 239 314 454q255 240 592 340q374 111 587 -9q204 -116 200 -377q2 -306 -242 -606q-321 -398 -841 -483q-468 -78 -610 205zM735 433q63 -191 332 -141q471 90 529 636q50 427 -363 314q-201 -56 -333 -221q-107 -126 -151 -280 q-58 -180 -14 -308z" />
<glyph unicode="1" horiz-adv-x="1630" d="M189 -90l79 298q78 18 173 39.5t213 47.5q30 132 57.5 252t53.5 235q22 84 48.5 183.5t57.5 217.5q-90 -57 -174.5 -103.5t-166.5 -84.5l-47 167q126 63 240.5 127t220.5 133l396 134q-39 -156 -75 -406q-27 -183 -49 -366t-40 -374q124 23 231 41.5t203 31.5l-18 -346 q-389 -37 -791 -105q-167 -28 -318 -58.5t-294 -63.5z" />
<glyph unicode="2" horiz-adv-x="2174" d="M172 -131l111 307q216 128 414 258t383 264q514 377 533 526q11 86 -150 94q-66 1 -137 -10t-152 -33q-254 -72 -505 -242l-152 90q177 129 342 206q73 32 170.5 67t221.5 73q241 72 393 84q182 12 301 -60q104 -56 104 -146q-2 -176 -332 -483q-138 -127 -301.5 -252.5 t-360.5 -256.5q165 36 316.5 68t296.5 60q271 55 442 72l3 -337q-142 -17 -299 -41t-336 -54q-362 -60 -686 -123.5t-620 -130.5z" />
<glyph unicode="3" d="M126 48l390 259q119 -80 340 -39q205 39 373 126q214 108 228 231q14 120 -211 131q-162 5 -360 -43q-29 -6 -59.5 -15t-64.5 -20l62 230l252 63q122 31 228 104q105 73 115 140q11 68 -75 86q-83 18 -201 -14q-168 -47 -274 -128l-248 27q231 179 525 265q266 78 467 71 q253 -8 245 -152q-9 -195 -349 -382q460 7 458 -302q-1 -250 -466 -474q-179 -88 -370.5 -149t-403.5 -95q-389 -65 -601 80z" />
<glyph unicode="4" horiz-adv-x="2012" d="M168 418q36 75 75 169.5t82 212.5q45 125 85.5 242t77.5 229l383 132q-65 -176 -216 -666q81 17 187 40.5t240 55.5q82 20 150.5 37t125.5 31q3 17 8 54.5t12 95.5q8 45 13.5 79.5t8.5 60.5q16 129 25 222.5t12 156.5l396 111q-12 -112 -21 -256.5t-14 -328.5 q-7 -237 -5 -456t13 -425l-579 -147q28 169 52.5 315.5t43.5 276.5q-96 -25 -199.5 -49.5t-216.5 -49.5q-23 -5 -118.5 -24.5t-267.5 -53.5q-61 -12 -148.5 -28.5t-204.5 -36.5z" />
<glyph unicode="5" horiz-adv-x="1942" d="M216 164l404 218q109 -75 311 -32q191 36 352 155q161 120 175 239q16 112 -105 156q-123 44 -292 1q-246 -61 -402 -223l-364 -28q43 78 97.5 168.5t123.5 196.5q54 85 104 165t99 158q159 40 321.5 86t339.5 98q88 26 165 50t146 46l-46 -196q-78 -24 -159 -48.5 t-172 -50.5q-94 -26 -190 -52t-199 -52l-140 -231q91 79 319 138q333 89 579 13q251 -77 249 -299q-5 -251 -330 -513q-324 -263 -745 -330q-483 -81 -641 167z" />
<glyph unicode="6" horiz-adv-x="2067" d="M338 457q48 127 327 490q94 115 183.5 225t177.5 219l339 63l-332 -411q70 47 209 85q328 91 579 15q251 -75 252 -298q-3 -253 -332 -516q-327 -261 -748 -329q-383 -67 -562 80t-93 377zM715 546q-36 -114 69 -172q106 -58 296 -22q198 39 352 154q156 115 171 240 q12 114 -109 157q-122 44 -297 2q-167 -41 -308 -145q-142 -103 -174 -214z" />
<glyph unicode="7" horiz-adv-x="1556" d="M58 -135q129 167 280 352t332 397q177 210 338 391t308 338q-122 -31 -217 -60q-127 -34 -270.5 -78t-308.5 -101l68 195q57 18 106.5 33t94.5 27q169 51 438 127.5t646 179.5q-142 -167 -310.5 -372t-364.5 -454q-206 -260 -369 -475.5t-287 -391.5z" />
<glyph unicode="8" horiz-adv-x="2079" d="M291 346q96 256 459 446q-167 56 -113 217q50 135 241 269q193 136 425 203q238 72 426 44q193 -28 187 -163q-7 -177 -309 -362q408 -15 407 -295q-5 -226 -358 -446q-314 -199 -687 -259q-347 -56 -552 41q-203 99 -126 305zM692 447q-33 -105 85 -145q111 -36 279 -7 q179 35 326 128q162 97 176 210q10 109 -128 137q-124 27 -284 -12q-156 -36 -285 -120q-139 -91 -169 -191zM989 1087q-20 -66 48 -95q66 -29 179 3q120 29 212 100q92 72 102 139q9 65 -67 86q-75 21 -184 -9q-53 -14 -99.5 -37.5t-88.5 -57.5q-83 -66 -102 -129z" />
<glyph unicode="9" horiz-adv-x="1819" d="M357 876q64 178 298 347q231 167 523 255q309 92 531 43q227 -48 227 -231q1 -53 -29 -123q-54 -128 -444 -537q-9 -11 -163 -169t-454 -464l-381 80q126 115 261 242.5t286 271.5q-56 -33 -122 -48q-50 -9 -117 -12q-259 -12 -368 87q-108 99 -48 258zM672 959 q-30 -94 67 -137q97 -42 267 -1q90 22 168.5 59t148.5 89q141 107 156 205q11 96 -100 124q-109 28 -272 -20q-154 -42 -281 -135q-126 -91 -154 -184z" />
<glyph unicode=":" horiz-adv-x="971" d="M227 -24l88 314l463 72l-50 -321zM460 869l59 218l390 89l-31 -215z" />
<glyph unicode=";" horiz-adv-x="843" d="M76 -230l426 585l285 15l-479 -660zM461 877l60 222l392 92l-32 -218z" />
<glyph unicode="&#x3c;" horiz-adv-x="1176" d="M212 749q166 121 344 272.5t377 340.5l271 -33q-100 -81 -172.5 -140.5t-123.5 -97.5q-82 -70 -152 -132t-133 -119q117 -95 477 -243l-321 -239q-149 116 -289.5 213t-277.5 178z" />
<glyph unicode="=" horiz-adv-x="1312" d="M257 541l25 152q346 75 616.5 140.5t476.5 125.5l-15 -174q-94 -14 -218.5 -39.5t-288.5 -61.5q-173 -39 -320 -75t-276 -68zM332 857l69 167q208 52 359.5 91.5t253.5 67.5q109 29 201 56t173 51l-33 -174q-85 -18 -200 -45t-265 -64q-162 -42 -300 -79t-258 -71z" />
<glyph unicode="&#x3e;" horiz-adv-x="1186" d="M277 379q112 88 192.5 154.5t131.5 111.5q88 72 161.5 136t136.5 124q-112 83 -381 179l250 179q129 -66 273.5 -130.5t311.5 -128.5q-178 -132 -381.5 -312.5t-436.5 -413.5z" />
<glyph unicode="?" horiz-adv-x="1782" d="M94 -128l108 271l416 93l-84 -304zM236 278q20 40 46.5 99t60.5 137q22 40 78 196q165 51 312 100.5t284 100.5q494 185 507 277q14 113 -460 -14q-37 -11 -93.5 -27t-132.5 -36q-146 -44 -216 -60l-95 -27q26 75 44 139.5t30 118.5q1414 414 1414 53q-1 -207 -501 -458 q-181 -91 -378 -164.5t-421 -133.5l-43 -181z" />
<glyph unicode="@" horiz-adv-x="2196" d="M117 96q88 115 184 254t208 310q108 162 189 292t142 236l239 58q83 -487 371 -823q26 96 47.5 199.5t38.5 217.5q18 121 29 218t13 173q-49 -12 -146 -35t-248 -58l38 145q108 26 233 59.5t273 75.5q424 120 654 210l2 -159q-99 -39 -225.5 -79.5t-286.5 -83.5 q-9 -66 -18 -139t-17 -158q-10 -156 -17.5 -303.5t-10.5 -294.5l-388 -112l14 56l-365 -123q-23 42 -44.5 100.5t-40.5 133.5q-51 -14 -98 -25t-90 -19q-63 -14 -117 -24t-99 -16q-34 -57 -77 -125t-97 -149zM684 550q99 17 134 27q5 0 128 32q-17 86 -28.5 163.5 t-18.5 147.5q-52 -91 -106 -182t-109 -188z" />
<glyph unicode="A" horiz-adv-x="2034" d="M6 -92q117 163 248 360t279 433q134 214 236.5 384.5t175.5 303.5l324 80q216 -683 817 -1179l-666 -210q-44 66 -86.5 152t-85.5 195q-156 -41 -273 -63q-88 -18 -166 -30.5t-148 -19.5q-67 -115 -124 -214t-108 -184zM787 546q117 21 195 39q23 5 70 16t120 29 q-33 106 -60.5 211t-49.5 214q-54 -100 -122 -226t-153 -283z" />
<glyph unicode="B" horiz-adv-x="2193" d="M-3 -167q75 163 154.5 351.5t165.5 406.5q75 189 133.5 351t106.5 306l476 143q434 131 626 150q46 4 87 4q253 0 252 -176v-7q-4 -95 -117 -196q-113 -99 -301 -162q171 35 298 35q367 0 377 -290v-11q0 -307 -537 -526q-155 -63 -380.5 -122t-529.5 -117 q-144 -26 -284 -51.5t-283 -49.5zM626 247q24 5 57.5 11.5t79.5 16.5q48 8 83 15t56 12q653 128 678 328q1 8 1 15q0 115 -211 115q-157 0 -432 -64q-41 -11 -102 -24l-102 -27zM804 876l5 1q593 154 625 321q1 7 1 13q0 66 -113 66q-103 0 -301 -55q-26 -8 -60 -19t-76 -27 z" />
<glyph unicode="C" horiz-adv-x="1959" d="M214 654q94 245 365 478q282 247 650 355q264 78 464 78q215 0 357 -90l-413 -217q-77 44 -193 44q-109 0 -251 -39q-230 -65 -403 -230q-156 -149 -203 -308q-19 -60 -19 -113q0 -95 61 -167q78 -103 244 -103q65 0 143 16q423 81 626 359l450 -33q-351 -545 -1162 -675 q-123 -21 -228 -21q-312 0 -453 188q-83 112 -83 251q0 106 48 227z" />
<glyph unicode="D" horiz-adv-x="2077" d="M-4 -164q112 254 209 490t185 466q115 295 171 462l755 224q202 60 366 60q151 0 271 -51q255 -109 261 -376v-21q0 -293 -292 -607q-371 -392 -906 -480zM584 224l494 95q287 56 461 290q126 165 145 352q2 23 2 46q0 107 -48 179q-65 91 -195 91q-19 0 -39 -2 q-64 -4 -259 -60q-60 -16 -129 -34.5t-153 -40.5q-13 -60 -34 -137t-52 -174q-26 -88 -74.5 -237.5t-118.5 -367.5z" />
<glyph unicode="E" horiz-adv-x="1715" d="M0 -135q151 403 281 761.5t239 672.5q462 128 686 190q207 57 208 57h-1q100 30 189 57.5t168 53.5l-16 -188q-169 -42 -344.5 -89.5t-364.5 -101.5l-247 -68q-16 -49 -39 -128t-55 -189q97 21 192 43.5t190 46.5q128 31 256 65.5t264 74.5l-52 -222q-112 -24 -229.5 -51 t-244.5 -56q-103 -24 -210.5 -50t-225.5 -55q-68 -242 -123 -453q254 55 476.5 102t423.5 85q99 18 187.5 34.5t173.5 32.5l-43 -307q-131 -22 -215.5 -35.5t-126.5 -19.5q-334 -57 -681.5 -122.5t-715.5 -140.5z" />
<glyph unicode="F" horiz-adv-x="1613" d="M-8 -143q49 91 111.5 230t138.5 328q61 155 142.5 373.5t184.5 506.5q309 86 518 145.5t324 93.5q142 42 270 82.5t246 79.5v-187q-118 -28 -255 -63.5t-300 -80.5q-45 -12 -109 -30.5t-152 -44.5q-87 -26 -149 -43.5t-101 -27.5q-19 -81 -42 -164t-52 -174 q499 116 498 116q106 27 196.5 53.5t165.5 52.5l-19 -231q-99 -22 -190.5 -43.5t-182.5 -43.5q-4 0 -527 -123q-20 -64 -74 -241.5t-144 -468.5z" />
<glyph unicode="G" horiz-adv-x="2132" d="M211 650q16 44 39.5 87t54.5 87q161 228 404 398q258 181 597 283q258 75 468 75q142 0 262 -34l-365 -240q-74 31 -170 31q-113 0 -257 -42q-240 -64 -432 -235q-177 -162 -229 -319q-20 -64 -20 -123q0 -90 48 -167q78 -124 251 -124q55 0 121 13q48 10 96 24 q471 162 589 448q-205 -46 -350 -78t-238 -50l66 232q144 31 396 93q295 70 591 153q-6 -121 -7 -232v-72q0 -72 1 -141q10 -287 36 -463l-594 -143l25 148q-345 -206 -708 -266q-100 -16 -187 -16q-313 0 -455 206q-77 113 -77 249q0 103 44 218z" />
<glyph unicode="H" horiz-adv-x="1836" d="M1 -116q45 97 95 218.5t107 271.5q58 151 109.5 287.5t99.5 266.5q36 100 66 186t56 161l383 131q-74 -197 -177 -537q79 18 182 42.5t236 56.5q81 20 146.5 38t119.5 33l21 156q17 129 26 222.5t11 156.5l398 110q-14 -111 -23 -256.5t-14 -328.5q-4 -159 -4 -310 q0 -75 1 -147q3 -218 15 -427l-580 -143q28 167 57 350.5t61 389.5q-97 -27 -196.5 -52.5t-207.5 -49.5q-79 -18 -158 -34.5t-160 -30.5l-70 -239q-36 -132 -66.5 -246.5t-55.5 -219.5z" />
<glyph unicode="I" horiz-adv-x="1205" d="M5 -90l129 326q49 11 114.5 27t150.5 36q26 79 52.5 168.5t53.5 192.5q48 187 76.5 330t39.5 249q-40 -10 -99.5 -25.5t-140.5 -37.5l31 162q72 20 149 42t167 47l176 54q100 30 190.5 58.5t171.5 54.5l10 -160q-29 -11 -98.5 -33.5t-184.5 -57.5q-1 -45 -9.5 -109 t-24.5 -150q-74 -434 -144 -693q70 16 127 28t102 20q154 30 232 39l-58 -347q-126 -6 -407 -54q-239 -40 -438.5 -81t-367.5 -86z" />
<glyph unicode="J" horiz-adv-x="1417" d="M1 -20l311 324q41 -19 102 -19q57 0 133 17q264 49 387 193q90 100 126 285q8 31 16.5 71.5t17.5 92.5q46 290 76 577l384 128q-2 -30 -5.5 -119t-9.5 -240q-4 -130 -8.5 -239t-10.5 -203q-17 -305 -283 -541q-295 -263 -789 -343q-120 -21 -219 -21q-133 0 -228 37z" />
<glyph unicode="K" horiz-adv-x="1794" d="M1 -140q109 260 200.5 491t167.5 443q113 310 159 496l333 77l-145 -471q106 76 199 158t181 170q55 54 124 130.5t154 179.5l378 19q-271 -293 -919 -797q120 -66 376.5 -164t654.5 -230l-526 -282q-480 208 -738 425q-86 -311 -129 -537z" />
<glyph unicode="L" horiz-adv-x="1545" d="M2 -152q190 398 339 848q131 392 171 622l401 119q-27 -119 -45 -186q-49 -208 -109 -436.5t-132 -488.5q188 48 361 84q42 8 114 21.5t175 31.5q99 16 174.5 30t129.5 26l-9 -382q-361 -37 -573 -61.5t-281 -36.5q-370 -64 -716 -191z" />
<glyph unicode="M" horiz-adv-x="2280" d="M-16 -171q158 291 294 587t253 603q23 62 45 122.5t42 121.5l305 60l227 -535l610 780l378 149q0 -52 0.5 -111t0.5 -125q0 -177 9 -335t26 -306q40 -395 134 -628l-654 -77q31 166 55 447q12 127 21 251.5t15 253.5l-758 -998l-191 860l-356 -1028z" />
<glyph unicode="N" horiz-adv-x="2036" d="M-13 -155q194 356 339.5 669t244.5 590q15 46 28 85.5t24 73.5l346 138l500 -739q29 169 51.5 315t37.5 274q16 129 16 211q0 47 -5 79l439 167q-17 -81 -25 -191t-9 -251q-1 -48 -1 -95q-1 -241 17 -465q20 -268 66 -518l-700 -69l-521 920q-60 -171 -113 -337.5 t-102 -337.5q-34 -111 -60.5 -212.5t-46.5 -195.5z" />
<glyph unicode="O" horiz-adv-x="1964" d="M218 662q95 244 354 470q272 238 631 343q203 62 368 62q148 0 267 -50q258 -108 264 -371q0 -10 1 -19q0 -296 -295 -611q-370 -397 -907 -486q-115 -19 -212 -19q-321 0 -450 203q-72 108 -72 239q0 111 51 239zM584 713q-27 -83 -28 -152q0 -79 37 -139 q65 -118 238 -118q61 0 135 15q289 56 491 295q152 188 167 369q2 19 2 37q0 139 -96 211q-69 50 -177 50q-83 0 -189 -30q-231 -65 -392 -232q-138 -141 -188 -306z" />
<glyph unicode="P" horiz-adv-x="1691" d="M-10 -143q97 219 184 430.5t165 422.5q64 181 109.5 322t70.5 250q756 221 1108 221q307 0 306 -168q-2 -197 -508 -459q-348 -181 -803 -333l-163 -575zM702 821q585 176 714 329q20 21 25 38v7q0 47 -95 47q-114 0 -366 -68q-15 -5 -37.5 -12t-57.5 -17 q-34 -10 -59 -17t-43 -12z" />
<glyph unicode="Q" horiz-adv-x="2173" d="M217 660q95 239 353 463q275 239 619 343q220 65 400 65q158 0 284 -50q283 -111 292 -394q1 -14 1 -29q0 -347 -392 -679q129 -68 403 -224l-520 -350q-83 147 -244 342q-207 -99 -435 -138q-126 -21 -234 -21q-325 0 -481 191q-94 115 -94 260q0 103 48 221zM564 732 q-20 -61 -20 -116q0 -107 78 -189q101 -106 287 -106q76 0 165 17q35 7 72.5 17t77.5 24q-50 57 -97.5 104.5t-94.5 89.5l275 171q47 -95 193 -198q185 176 201 389q1 17 1 33q0 168 -133 263q-90 62 -220 62q-95 0 -211 -33q-213 -60 -380 -229q-141 -144 -194 -299z" />
<glyph unicode="R" horiz-adv-x="1860" d="M-3 -143l526 1425q81 23 173 46t200 46q400 86 641 86q373 0 370 -206q-1 -289 -803 -573q139 -81 342 -165.5t475 -172.5l-416 -271q-112 38 -243 100t-283 147q-124 70 -210 126t-140 98l-170 -591zM709 821q75 12 142 25.5t127 29.5q416 101 432 235q1 9 1 17 q0 85 -143 84q-126 0 -364 -65l-114 -31z" />
<glyph unicode="S" horiz-adv-x="2074" d="M34 56l268 299q108 -72 249 -84q28 -3 61 -3q123 0 305 36q79 17 148 33t127 30q396 106 416 290q1 7 1 14q0 123 -177 123q-47 0 -106 -9q-146 -30 -285 -59t-278 -57q-91 -14 -159 -14q-160 0 -194 79q-11 29 -11 64q0 55 27 125q70 181 327 337q220 134 542 230 q118 34 209.5 57t157.5 35q103 17 202 18q76 0 150 -11l-221 -234q-68 15 -142 15q-63 0 -131 -11q-95 -16 -304 -72q-211 -61 -306 -113q-119 -66 -156 -186q-4 -13 -3 -24q0 -53 90 -53h8q72 0 245 45q38 7 107 27q37 11 65.5 18t47.5 11q322 80 486 80q243 0 318 -152 q14 -29 20 -62q5 -28 5 -59v-10q0 -9 1 -17q0 -320 -440 -548q-330 -173 -901 -264q-149 -26 -263 -34q-58 -4 -110 -5q-48 0 -89 4q-180 17 -307 111z" />
<glyph unicode="T" horiz-adv-x="1389" d="M239 1084l69 186q136 32 283.5 72.5t315.5 91.5q257 75 453 140t338 122l-6 -198q-127 -51 -284 -102.5t-352 -105.5q-13 -60 -31 -153.5t-41 -225.5q-42 -232 -73 -436t-54 -386l-495 -137q66 172 125 355.5t111 385.5q72 284 108 505q-51 -14 -166.5 -41.5 t-300.5 -72.5z" />
<glyph unicode="U" horiz-adv-x="1773" d="M176 507q1 6 72.5 192t213.5 552l341 126q-71 -209 -118 -356.5t-74 -235.5q-14 -48 -25.5 -86.5t-19.5 -68.5q-25 -95 -25 -159q0 -53 17 -84q43 -69 172 -69q65 0 152 17q286 56 426 215q97 109 120 298q7 70 16 166t22 222q20 238 33 326l410 146v-155q1 -54 1 -95 v-69l-3 -350q-2 -131 -9 -210q-41 -287 -321 -513q-301 -241 -754 -316q-152 -25 -271 -25q-251 0 -357 112q-69 74 -69 191q0 99 50 229z" />
<glyph unicode="V" horiz-adv-x="1374" d="M284 1254l337 123q0 -148 22.5 -343.5t65.5 -448.5q130 227 225.5 392t161.5 277q81 124 108 171q32 46 62 87t60 77l383 75q-93 -138 -193 -306.5t-215 -374.5q-140 -259 -257.5 -496t-213.5 -458l-518 -24q11 187 13 377v76q0 154 -6 315q-4 148 -12.5 267.5 t-22.5 213.5z" />
<glyph unicode="W" horiz-adv-x="2094" d="M87 -79q45 175 80 360.5t60 387.5q22 157 31 279q7 92 7 167q0 25 -1 47l346 125q3 -79 3 -166q0 -112 -5 -236q-9 -222 -36 -491q176 238 330.5 469.5t293.5 467.5q40 -103 124 -268t215 -401q109 272 165.5 412.5t64.5 152.5q112 275 216 469l463 96 q-48 -97 -106 -243.5t-127 -350.5q-93 -263 -170.5 -507.5t-143.5 -482.5l-607 -148q-81 163 -142 320.5t-106 317.5q-138 -222 -270.5 -412t-261.5 -354z" />
<glyph unicode="X" horiz-adv-x="1760" d="M15 3q129 140 309.5 334.5t417.5 450.5q-100 148 -169.5 259t-109.5 189l358 146q18 -67 62.5 -146t119.5 -173q158 168 289.5 300t237.5 231l367 72q-161 -152 -346 -348t-394 -434q114 -121 275 -272.5t372 -336.5l-538 -203q-79 103 -171.5 228t-201.5 277 q-118 -141 -253.5 -303t-292.5 -354z" />
<glyph unicode="Y" horiz-adv-x="1464" d="M269 1234l320 125q73 -66 150 -152t160 -192q232 303 537 594l376 87q-183 -186 -372 -400.5t-389 -462.5q-51 -244 -119 -446.5t-159 -371.5l-397 -39q175 316 287 722q-61 95 -119.5 181t-116.5 165q-48 66 -87 113t-71 77z" />
<glyph unicode="Z" horiz-adv-x="1669" d="M-15 -135q127 165 277.5 350t332.5 399q179 211 339 391t308 338q-66 -16 -119.5 -31t-98.5 -29q-127 -34 -270.5 -78t-308.5 -101l68 195q115 36 201 60q297 88 566 164.5t518 142.5q-249 -287 -524.5 -634t-579.5 -754q88 20 346.5 78t690.5 154l-39 -334 q-192 -38 -421 -81.5t-499 -91.5q-363 -63 -558 -97.5t-229 -40.5z" />
<glyph unicode="[" horiz-adv-x="1495" d="M155 -331q73 207 146 426t147 455l70 230q63 200 114 375.5t96 334.5q34 10 93.5 27t144.5 41q81 24 144 42.5t111 32.5q82 26 147 47.5t114 39.5l-45 -155q-137 -31 -434 -116q-46 -179 -117 -464.5t-166 -677.5q-13 -57 -29 -128t-37 -159q96 14 167.5 25.5t122.5 19.5 q287 48 473 99l-73 -328q-103 -20 -224 -40t-266 -42q-112 -14 -286 -35.5t-413 -49.5z" />
<glyph unicode="\" horiz-adv-x="1263" d="M380 1425l269 120l559 -1589l-479 -186q-14 149 -54 364.5t-104 503.5q-55 244 -102 438.5t-89 348.5z" />
<glyph unicode="]" horiz-adv-x="1493" d="M108 -326l121 302q168 12 552 72q59 282 114.5 561t107.5 562l34 188q5 22 10.5 56.5t12.5 82.5q-140 -38 -216 -61q-97 -29 -173.5 -54t-137.5 -45l69 155q61 20 134.5 44t164.5 52q78 24 205 62.5t311 92.5q-17 -109 -32.5 -233.5t-28.5 -268.5l-32 -329 q-23 -232 -45 -501.5t-42 -582.5q-63 -8 -161.5 -19.5t-239.5 -27.5q-247 -24 -380 -45q-212 -32 -348 -63z" />
<glyph unicode="^" horiz-adv-x="1394" d="M281 708q245 263 592 719l287 95q57 -105 149.5 -231.5t224.5 -278.5l-364 -143q-45 97 -96 198.5t-114 207.5q-109 -139 -213.5 -276.5t-210.5 -281.5z" />
<glyph unicode="_" horiz-adv-x="1824" d="M35 -131l51 140l1710 307l-2 -157z" />
<glyph unicode="`" horiz-adv-x="611" d="M427 1705l207 87l169 -143l-100 -69z" />
<glyph unicode="a" horiz-adv-x="2029" d="M2 -92q117 163 248.5 360t279.5 433q133 212 235.5 383t176.5 305l324 80q216 -683 817 -1179l-667 -210q-89 135 -171 347q-78 -20 -145.5 -36t-128.5 -27q-88 -18 -165.5 -30.5t-147.5 -19.5q-67 -115 -124 -214t-108 -184zM783 546q60 11 108.5 20.5t87.5 18.5 q23 5 69.5 16t119.5 29q-33 106 -60 211t-49 214q-54 -100 -122.5 -226t-153.5 -283z" />
<glyph unicode="b" horiz-adv-x="2186" d="M-6 -167q74 163 153.5 351.5t166.5 406.5q75 189 134 351t105 306l477 143q434 131 626 150q46 4 87 4q253 0 252 -176v-7q-4 -95 -117 -196q-113 -99 -301 -162q172 35 300 35q366 0 374 -290v-13q0 -305 -537 -524q-155 -63 -381 -122t-528 -117q-144 -26 -284 -51.5 t-283 -49.5zM623 247q23 5 56.5 11.5t79.5 16.5q100 17 140 27q652 128 677 328q1 8 1 16q0 114 -209 114q-157 0 -433 -64q-37 -11 -103 -24q-34 -9 -59 -15.5t-42 -11.5zM800 876l6 1q593 154 625 321q1 7 1 13q0 66 -113 66q-103 0 -301 -55q-26 -8 -60 -19t-77 -27z" />
<glyph unicode="c" horiz-adv-x="1954" d="M211 654q94 245 365 478q282 247 650 355q263 78 463 78q215 0 357 -90l-412 -217q-77 44 -193 44q-109 0 -251 -39q-230 -65 -403 -230q-156 -149 -203 -308q-20 -61 -20 -114q0 -94 62 -166q78 -103 244 -103q65 0 143 16q423 81 626 359l450 -33q-349 -544 -1162 -675 q-123 -21 -227 -21q-312 0 -455 188q-82 113 -82 251q0 106 48 227z" />
<glyph unicode="d" horiz-adv-x="2070" d="M-8 -164q112 254 209 490t185 466q115 295 171 462l755 224q202 60 367 60q151 0 270 -51q255 -110 262 -376q0 -11 1 -21q0 -293 -293 -607q-371 -392 -906 -480zM580 224l495 95q285 56 460 290q125 163 145 352q3 26 3 50q0 104 -49 175q-65 91 -194 91q-19 0 -39 -2 q-64 -4 -259 -60q-60 -16 -130 -34.5t-152 -40.5q-27 -120 -87 -311q-26 -88 -74.5 -237.5t-118.5 -367.5z" />
<glyph unicode="e" horiz-adv-x="1710" d="M-3 -135q151 403 281 761.5t239 672.5q461 128 685 190q207 57 208 57h-1q100 30 189.5 57.5t168.5 53.5l-16 -188q-169 -42 -344.5 -89.5t-364.5 -101.5l-247 -68q-15 -51 -39.5 -129.5t-55.5 -187.5q97 21 192 43.5t191 46.5q128 31 256 65.5t264 74.5l-52 -222 q-112 -24 -229.5 -51t-244.5 -56q-103 -24 -211 -50t-225 -55q-68 -242 -123 -453q252 55 476 102t424 85q99 18 187 34.5t173 32.5l-43 -307q-131 -22 -215 -35.5t-126 -19.5q-335 -57 -682 -122.5t-715 -140.5z" />
<glyph unicode="f" horiz-adv-x="1609" d="M-10 -143q49 91 111.5 230t138.5 328q61 155 142.5 373.5t184.5 506.5q309 85 518.5 145t324.5 94q142 42 269.5 82.5t245.5 79.5v-187q-118 -28 -255 -63.5t-300 -80.5q-45 -12 -109 -30.5t-152 -44.5q-87 -26 -148.5 -43.5t-100.5 -27.5q-19 -81 -42.5 -164t-51.5 -174 q249 58 372 87t125 29q106 27 196.5 53.5t165.5 52.5l-18 -231q-99 -22 -191 -43.5t-182 -43.5q-5 0 -528 -123q-20 -64 -74 -241.5t-144 -468.5z" />
<glyph unicode="g" horiz-adv-x="2128" d="M210 650q17 45 39.5 87t53.5 87q161 228 404 398q131 91 279.5 161t318.5 122q258 75 468 75q141 0 261 -34l-365 -240q-74 31 -170 31q-113 0 -256 -42q-241 -64 -433 -235q-177 -162 -229 -319q-20 -64 -20 -122q0 -91 49 -168q78 -124 251 -124q55 0 121 13 q50 11 95 24q471 162 589 448q-205 -46 -349.5 -78t-237.5 -50l65 232q144 31 396 93q295 70 591 153q-6 -121 -7 -232v-72q0 -72 1 -141q5 -145 14.5 -260t22.5 -203l-595 -143l26 148q-345 -206 -708 -266q-100 -16 -187 -16q-314 0 -456 206q-78 113 -78 248 q0 103 46 219z" />
<glyph unicode="h" horiz-adv-x="1831" d="M-3 -116q45 98 95.5 219.5t107.5 270.5q58 151 109.5 287.5t99.5 266.5q36 100 66 186t55 161l383 131q-72 -197 -177 -537q79 18 182.5 42.5t236.5 56.5q81 20 146.5 38t119.5 33l21 156q33 255 36 379l399 110q-14 -111 -23 -256.5t-14 -328.5q-4 -159 -4 -310 q0 -75 1 -147q3 -218 15 -427l-581 -143q28 167 57.5 350.5t61.5 389.5q-97 -27 -196.5 -52.5t-207.5 -49.5q-79 -18 -158 -34.5t-160 -30.5l-70 -239q-36 -131 -66.5 -247t-56.5 -219z" />
<glyph unicode="i" horiz-adv-x="594" d="M22 -44q101 334 221 790q51 195 89.5 358.5t67.5 298.5l413 138q-30 -112 -61 -267t-64 -358q-42 -251 -67 -455.5t-36 -368.5z" />
<glyph unicode="j" horiz-adv-x="1411" d="M-1 -20l312 324q41 -19 101 -19q58 0 133 17q267 50 388 193q88 100 126 285q8 31 16 71.5t17 92.5q23 147 42.5 289.5t33.5 287.5l384 128q-2 -30 -5.5 -119t-9.5 -240q-4 -130 -8.5 -239t-10.5 -203q-17 -306 -282 -541q-295 -263 -790 -343q-120 -21 -219 -21 q-133 0 -228 37z" />
<glyph unicode="k" horiz-adv-x="1792" d="M-1 -140q109 260 200.5 491t167.5 443q57 156 96 279t64 217l332 77l-145 -471q210 153 381 328q54 52 123 129.5t154 180.5l378 19q-272 -294 -918 -797q120 -66 376 -164t654 -230l-526 -282q-480 210 -737 425q-45 -157 -76.5 -289.5t-53.5 -247.5z" />
<glyph unicode="l" horiz-adv-x="1543" d="M0 -152q190 398 339 848q131 392 171 622l401 119q-13 -60 -24 -106t-20 -80q-50 -207 -110 -436.5t-132 -488.5q188 48 361 84q43 8 115 21.5t175 31.5q99 16 174 30t129 26l-9 -382q-360 -37 -572.5 -61.5t-281.5 -36.5q-370 -64 -716 -191z" />
<glyph unicode="m" horiz-adv-x="2278" d="M-17 -171q158 291 293.5 586t252.5 604q23 62 45 122.5t42 121.5l305 60l227 -535l610 780l379 149q0 -52 0.5 -111t0.5 -125q0 -177 8.5 -335t25.5 -306q40 -395 134 -628l-654 -77q16 84 30 195t26 252q12 128 21 253t14 252l-758 -998l-191 860l-355 -1028z" />
<glyph unicode="n" horiz-adv-x="2033" d="M-14 -155q194 356 339 669t245 590q28 91 51 159l346 138l500 -739q29 169 51.5 315t37.5 274q16 129 16 211q0 47 -5 79l440 167q-16 -81 -25 -190.5t-10 -251.5q-1 -48 -1 -95q-1 -241 17 -465q20 -268 66 -518l-700 -69l-520 920q-120 -338 -216 -675 q-33 -112 -59 -213t-47 -195z" />
<glyph unicode="o" horiz-adv-x="1961" d="M216 662q95 244 354 470q272 238 631 343q203 62 369 62q149 0 267 -50q258 -108 264 -371q0 -11 1 -21q0 -295 -296 -609q-370 -397 -907 -486q-115 -19 -212 -19q-321 0 -450 203q-72 108 -72 239q0 111 51 239zM582 713q-27 -81 -27 -150q0 -80 37 -141 q66 -117 239 -118q60 0 133 15q289 56 491 295q152 188 167 369q2 20 2 39q0 138 -96 209q-69 50 -177 50q-83 0 -189 -30q-231 -65 -392 -232q-138 -141 -188 -306z" />
<glyph unicode="p" horiz-adv-x="1690" d="M-11 -143q97 220 183 430.5t165 422.5q65 180 110 322.5t71 249.5q755 221 1107 221q306 0 306 -168q-2 -197 -508 -459q-348 -181 -803 -333l-163 -575zM701 821q585 176 714 329q21 24 24 38q1 4 1 7q0 46 -95 46q-114 0 -366 -67q-15 -5 -38 -12t-58 -17 q-34 -10 -59 -17t-43 -12z" />
<glyph unicode="q" horiz-adv-x="2169" d="M215 660q95 239 353 463q276 240 620 343q220 65 399 65q158 0 284 -50q285 -111 292 -394q1 -14 1 -29q0 -347 -392 -679q64 -34 164 -90t239 -134l-520 -350q-83 147 -243 342q-207 -99 -435 -138q-126 -21 -234 -21q-325 0 -481 191q-95 115 -95 260q0 103 48 221z M562 732q-20 -61 -20 -115q0 -108 78 -190q101 -106 287 -106q76 0 165 17q36 7 74 17t77 24q-51 57 -98 104.5t-95 89.5l275 171q47 -95 193 -198q185 176 201 389q1 17 1 33q0 169 -132 263q-90 62 -220 62q-95 0 -211 -33q-214 -61 -380 -229q-142 -147 -195 -299z" />
<glyph unicode="r" horiz-adv-x="1859" d="M-3 -143l526 1425q81 23 173 46t200 46q400 86 641 86q373 0 370 -206q-1 -289 -803 -573q139 -81 342 -165.5t475 -172.5l-416 -271q-112 38 -243 100t-283 147q-124 70 -210 126t-140 98l-170 -591zM709 821q75 12 142 25.5t127 29.5q416 101 432 235q1 9 1 17 q0 85 -143 84q-126 0 -364 -65l-114 -31z" />
<glyph unicode="s" horiz-adv-x="2072" d="M32 56l268 299q108 -72 250 -84q28 -3 61 -3q122 0 304 36q157 34 276 63q397 106 415 290q1 7 1 14q0 123 -177 123q-47 0 -106 -9q-146 -30 -284.5 -59t-277.5 -57q-91 -14 -159 -14q-161 0 -194 79q-12 29 -12 64q0 54 28 125q69 180 326 337q220 134 542 230 q118 34 209.5 57t157.5 35q104 17 202 18q76 0 150 -11l-220 -234q-67 15 -142 15q-63 0 -132 -11q-100 -17 -304 -72q-108 -32 -183.5 -60t-121.5 -53q-119 -66 -156 -186q-5 -14 -5 -26q0 -51 91 -51h9q71 0 244 45q38 7 107 27q38 11 66.5 18t46.5 11q322 80 487 80 q241 0 318 -152q24 -53 24 -121v-10q0 -9 1 -17q0 -320 -440 -548q-329 -173 -900 -264q-150 -26 -264 -34q-58 -4 -109 -5q-48 0 -89 4q-181 17 -308 111z" />
<glyph unicode="t" horiz-adv-x="1388" d="M239 1084l69 186q136 32 283.5 72.5t315.5 91.5q257 75 453 140t338 122l-6 -198q-127 -51 -284 -102.5t-352 -105.5q-13 -60 -31 -153.5t-41 -225.5q-42 -232 -73 -436t-54 -386l-495 -137q66 172 125 355.5t111 385.5q72 284 108 505q-51 -14 -166.5 -41.5 t-300.5 -72.5z" />
<glyph unicode="u" horiz-adv-x="1770" d="M175 507q1 6 72.5 192t213.5 552l341 126q-71 -209 -118.5 -356.5t-74.5 -235.5q-14 -48 -25.5 -86.5t-19.5 -68.5q-25 -96 -25 -160q0 -53 17 -83q43 -69 172 -69q65 0 152 17q287 56 427 215q97 109 119 298q7 70 16.5 166t21.5 222q10 120 18 200.5t16 125.5l410 146 q-1 -23 -1 -62v-93q1 -54 1 -95v-69l-3 -350q0 -131 -9 -210q-41 -287 -320 -513q-301 -241 -755 -316q-153 -26 -273 -26q-250 0 -354 113q-69 74 -69 191q0 99 50 229z" />
<glyph unicode="v" horiz-adv-x="1372" d="M284 1254l337 123q0 -148 22.5 -343.5t65.5 -448.5q130 227 225.5 392t161.5 277q81 124 108 171q32 46 62 87t60 77l383 75q-93 -138 -193 -306.5t-215 -374.5q-140 -259 -257.5 -496t-213.5 -458l-518 -24q11 187 13 377v76q0 154 -6 315q-4 148 -12.5 267.5 t-22.5 213.5z" />
<glyph unicode="w" horiz-adv-x="2094" d="M87 -79q45 175 80 360.5t60 387.5q22 157 31 279q7 92 7 167q0 25 -1 47l346 125q3 -79 3 -166q0 -112 -5 -236q-9 -222 -36 -491q176 238 330.5 469.5t293.5 467.5q40 -103 124 -268t215 -401q109 272 165.5 412.5t64.5 152.5q112 275 216 469l463 96 q-48 -97 -106 -243.5t-127 -350.5q-93 -263 -170.5 -507.5t-143.5 -482.5l-607 -148q-81 163 -142 320.5t-106 317.5q-138 -222 -270.5 -412t-261.5 -354z" />
<glyph unicode="x" horiz-adv-x="1760" d="M15 3q129 140 309.5 334.5t417.5 450.5q-100 148 -169.5 259t-109.5 189l358 146q18 -67 62.5 -146t119.5 -173q158 168 289.5 300t237.5 231l367 72q-161 -152 -346 -348t-394 -434q114 -121 275 -272.5t372 -336.5l-538 -203q-79 103 -171.5 228t-201.5 277 q-118 -141 -253.5 -303t-292.5 -354z" />
<glyph unicode="y" horiz-adv-x="1464" d="M269 1234l320 125q73 -66 150 -152t160 -192q232 303 537 594l376 87q-183 -186 -372 -400.5t-389 -462.5q-51 -244 -119 -446.5t-159 -371.5l-397 -39q175 316 287 722q-61 95 -119.5 181t-116.5 165q-48 66 -87 113t-71 77z" />
<glyph unicode="z" horiz-adv-x="1669" d="M-15 -135q127 165 277.5 350t332.5 399q179 211 339 391t308 338q-66 -16 -119.5 -31t-98.5 -29q-127 -34 -270.5 -78t-308.5 -101l68 195q115 36 201 60q297 88 566 164.5t518 142.5q-249 -287 -524.5 -634t-579.5 -754q88 20 346.5 78t690.5 154l-39 -334 q-192 -38 -421 -81.5t-499 -91.5q-363 -63 -558 -97.5t-229 -40.5z" />
<glyph unicode="{" horiz-adv-x="1731" d="M278 672l55 221q181 40 366 90q33 121 68.5 259t73.5 296q34 12 95 30.5t151 44.5q84 24 148 42.5t112 32.5q84 26 151 48.5t119 40.5l-38 -156q-76 -18 -186.5 -48t-262.5 -75q-41 -179 -88 -406.5t-102 -509.5l-52 -266q-8 -40 -19.5 -102.5t-26.5 -150.5 q190 25 304 45q152 26 273.5 50.5t218.5 49.5l-55 -331q-212 -41 -513 -84q-121 -17 -303 -40t-433 -52q66 211 126 417t117 420l57 215q-97 -23 -185.5 -43t-170.5 -38z" />
<glyph unicode="|" horiz-adv-x="942" d="M172 -283q60 210 130 469.5t147 569.5q63 249 111 450t84 359l322 92l-26 -140q-28 -136 -59 -300.5t-65 -363.5q-110 -629 -168 -1089z" />
<glyph unicode="}" horiz-adv-x="1655" d="M108 -355l131 299q82 4 213 20t315 45q70 281 130.5 536t114.5 491l67 290l26 123q-67 -18 -119 -33t-90 -27q-185 -54 -303 -99l76 156q60 20 130 43t158 49q76 23 200 60.5t301 91.5q-21 -109 -42 -234t-43 -268l-12 -84q57 14 90 22.5t42 11.5q166 40 300 84l-43 -258 q-135 -40 -425 -104q-35 -229 -68.5 -493.5t-69.5 -573.5q-60 -8 -154 -19t-229 -25q-118 -14 -207 -25t-155 -19q-103 -16 -186.5 -31t-147.5 -29z" />
<glyph unicode="~" horiz-adv-x="2034" d="M210 681q286 232 633 323q149 39 300 -1q153 -39 279 -6q344 87 579 305l209 -147q-302 -266 -741 -367q-38 -8 -78 -15q-134 -27 -276 24q-143 51 -252 20q-279 -67 -501 -274z" />
<glyph unicode="&#xa1;" horiz-adv-x="935" d="M138 -271l405 1259l282 63q-11 -38 -17.5 -61.5t-8.5 -33.5q-44 -262 -123 -1186zM522 1099l47 191l381 101l-38 -176z" />
<glyph unicode="&#xa2;" horiz-adv-x="2156" d="M318 323q-34 156 33 331q94 244 364 478q283 247 651 355q24 7 49.5 13.5t51.5 13.5l100 155l291 51l-95 -155q259 15 423 -90l-412 -217q-66 36 -170 41q-147 -248 -286 -485.5t-272 -470.5q58 3 107 15q422 81 625 359l451 -33q-349 -544 -1162 -675q-122 -21 -220 -21 q-43 -82 -81 -155.5t-70 -139.5l-353 56l199 304q-179 87 -224 270zM724 725q-59 -183 56 -298l525 827q-224 -68 -386 -230q-150 -149 -195 -299z" />
<glyph unicode="&#xa3;" horiz-adv-x="1731" d="M258 543l81 177l193 41l45 138q70 223 273 384q105 85 248.5 153t328.5 122q237 72 422 75l-224 -242q-91 10 -236 -29q-267 -75 -374 -224q-24 -39 -49 -109.5t-49 -176.5q81 17 153 34t141 34q103 26 179 46t125 34l-49 -172q-200 -59 -589 -147q-17 -74 -41 -182.5 t-55 -254.5q139 28 352 73.5t511 109.5l-40 -275q-12 -2 -344.5 -63t-984.5 -181q38 127 89 296.5t117 389.5q-57 -12 -112.5 -24.5t-110.5 -26.5z" />
<glyph unicode="&#xa4;" horiz-adv-x="2017" d="M169 208q66 42 159 103t220 146q-80 93 -33 224q40 110 148 220q-49 22 -220 60l209 155q29 -19 74.5 -38.5t106.5 -41.5q180 123 407 186q94 25 180 35t167 6q79 57 143 107t115 93l217 -48q-52 -31 -126 -79t-174 -114q149 -68 143 -210q-3 -153 -185 -323 q33 -10 115 -30.5t214 -52.5l-278 -224q-112 74 -280 144q-198 -116 -417 -156q-239 -47 -392 5q-118 -85 -210.5 -156t-161.5 -132zM816 746q-29 -95 56 -148q83 -52 246 -19q164 38 293 140q126 102 138 201q9 96 -88 133q-100 38 -250 -2q-145 -36 -257 -126 q-115 -88 -138 -179z" />
<glyph unicode="&#xa5;" horiz-adv-x="1666" d="M271 184l35 180q60 11 148.5 27.5t209.5 38.5q11 32 27.5 84.5t38.5 127.5q-230 -53 -365 -89l80 191l238 53q-60 88 -101 149t-65 98q-88 120 -166 190l322 125q73 -66 150.5 -150.5t159.5 -189.5q118 150 251.5 296.5t286.5 293.5l377 87q-165 -167 -336.5 -359 t-353.5 -414q70 18 140 37.5t145 39.5l-40 -200q-85 -16 -168 -33t-168 -35q-27 -102 -60 -222q84 20 186 45.5l230 57.5l-19 -202q-94 -12 -205.5 -30t-244.5 -43q-32 -84 -68.5 -164.5t-79.5 -158.5l-395 -39q36 69 69.5 138t62.5 142q-85 -18 -165.5 -36t-156.5 -36z" />
<glyph unicode="&#xa6;" horiz-adv-x="836" d="M188 -275q35 129 71.5 272.5t74.5 304.5q64 249 81 364l298 56q-14 -58 -31.5 -149t-39.5 -218q-30 -163 -55 -310.5t-46 -286.5zM469 920q26 87 49.5 174t45.5 176q20 82 35.5 153.5t25.5 132.5l248 86q-16 -75 -33 -158t-35 -177q-18 -91 -29 -164.5t-18 -133.5z" />
<glyph unicode="&#xa8;" horiz-adv-x="976" d="M371 1427l42 138l299 104l-49 -171zM935 1582l24 166l326 92l-21 -150z" />
<glyph unicode="&#xa9;" horiz-adv-x="2700" d="M365 579q107 254 434 494q328 241 714 354q434 129 785 60q352 -69 377 -352q29 -329 -417 -683q-446 -353 -1036 -452q-526 -87 -756 98q-227 185 -101 481zM608 630q-86 -228 74 -364q178 -162 570 -94q432 80 739 354q292 253 294 501q2 221 -240 299 q-228 75 -560 -19q-305 -85 -554 -283q-245 -191 -323 -394zM884 660q44 134 188 263q155 138 355 191q284 74 399 -35l-207 -111q-69 53 -215 15q-129 -35 -217 -123q-82 -81 -104 -164q-26 -83 27 -141q57 -65 195 -36q195 42 293 170l197 -15q-179 -242 -535 -312 q-228 -46 -337 61q-84 94 -39 237z" />
<glyph unicode="&#xab;" horiz-adv-x="2096" d="M211 481q169 121 354.5 276t391.5 347l246 -44q-103 -82 -177.5 -143t-125.5 -101q-85 -72 -158.5 -136.5t-137.5 -124.5q96 -107 416 -277l-327 -246q-123 131 -243 242t-239 207zM1009 660q349 261 760 666l317 -39q-104 -87 -181 -151t-129 -109q-88 -75 -163 -143 t-141 -131q155 -108 593 -279l-347 -266q-189 135 -364 246.5t-345 205.5z" />
<glyph unicode="&#xad;" horiz-adv-x="1167" d="M222 684l71 181q430 103 636 156q114 29 210 55.5t180 49.5l-35 -189q-176 -32 -485 -108q-167 -38 -309 -74t-268 -71z" />
<glyph unicode="&#xae;" horiz-adv-x="2756" d="M375 606q116 267 446 509q331 244 737 363q441 131 794 59q355 -70 386 -358q31 -331 -427 -706q-462 -374 -1067 -473q-541 -90 -771 107q-227 197 -98 499zM609 660q-85 -224 103 -357q191 -131 587 -56q432 81 764 343q334 262 333 502q-1 219 -265 280 q-265 62 -601 -37q-319 -89 -580 -280t-341 -395zM997 403l199 711q250 69 451 81q288 15 277 -116q-15 -144 -395 -282q69 -38 159.5 -73t205.5 -67l-184 -119q-245 67 -423 187l-60 -268zM1321 860q33 6 68 13.5t73 15.5q209 55 220 120q17 95 -254 27l-69 -17z" />
<glyph unicode="&#xaf;" horiz-adv-x="1292" d="M291 1219l29 80l1288 382l-2 -80z" />
<glyph unicode="&#xb0;" horiz-adv-x="1104" d="M427 1155q29 91 150 185t276 138q160 48 264 18t95 -122q-8 -97 -138 -200q-138 -111 -319 -159q-173 -42 -267 6q-87 42 -61 134zM610 1200q-14 -48 33 -69q49 -20 129 4q82 20 145 71q64 53 71 100q6 43 -41 63t-126 -4t-139 -72q-59 -47 -72 -93z" />
<glyph unicode="&#xb1;" horiz-adv-x="1469" d="M142 -102l97 249q248 40 428 71t301 53q132 26 246 50t214 46l-51 -263q-102 -10 -242 -30t-324 -50q-386 -68 -669 -126zM335 669l74 179q66 14 166 38t240 58q21 81 38 154.5t32 143.5l285 96l-67 -319q152 38 273 71t215 60l-35 -189q-112 -24 -232 -51t-254 -58 l-11 -72q-41 -213 -35 -270l-350 -99q20 66 45 158t56 213q-146 -36 -255 -64.5t-185 -48.5z" />
<glyph unicode="&#xb4;" horiz-adv-x="497" d="M401 1517l249 272l203 47l-374 -331z" />
<glyph unicode="&#xb6;" horiz-adv-x="2306" d="M322 865q78 186 416 369q140 75 293 137t326 114q58 18 147.5 44t212.5 60t215.5 60.5t158.5 46.5q93 26 160 47t112 37l13 -188l-349 -99q-12 -190 -19.5 -328.5t-10.5 -232.5q-4 -143 -5 -271.5t1 -249.5q12 -322 39 -530l-588 -19q37 206 77.5 481.5t83.5 627.5 q9 66 21 169t26 246q-45 -17 -106 -33q-35 -11 -97.5 -27.5t-152.5 -38.5q-27 -92 -52.5 -192t-48.5 -211q-71 -332 -120 -617.5t-79 -532.5l-508 -29l289 845q-279 -31 -402 58q-121 90 -53 257z" />
<glyph unicode="&#xb7;" horiz-adv-x="828" d="M376 765l64 230l401 89l-36 -227z" />
<glyph unicode="&#xbb;" horiz-adv-x="2099" d="M166 84q114 91 196 158.5t136 112.5q181 150 309 270q-95 95 -332 211l256 179q111 -76 237 -151.5t275 -153.5q-184 -135 -395 -320t-457 -426zM1025 244q118 100 204 173t141 121q94 81 171.5 152t143.5 134q-142 96 -461 207l268 191q304 -147 705 -294 q-189 -145 -403.5 -344.5t-459.5 -458.5z" />
<glyph unicode="&#xbf;" horiz-adv-x="2127" d="M171 200q91 246 538 469q169 87 361.5 161t418.5 138l10 158l476 145q-7 -34 -15.5 -87.5t-18.5 -127.5q-4 -40 -6 -215q-424 -115 -745 -228q-524 -186 -557 -302q-46 -163 512 -60q58 10 145 26t207 39q124 24 217.5 42t159.5 29l64 12q2 -138 11 -265.5t24 -247.5 q-2018 -272 -1802 314zM1525 1246l23 193l419 111l-10 -180z" />
<glyph unicode="&#xc0;" horiz-adv-x="2022" d="M-1 -92q117 163 248.5 360t278.5 433q134 214 236.5 384.5t175.5 303.5l325 80q217 -686 816 -1179l-666 -210q-44 66 -86.5 152t-85.5 195q-156 -41 -273 -63q-88 -18 -166 -30.5t-148 -19.5q-67 -115 -124 -214t-108 -184zM780 546q120 21 196 39q22 5 69 16t120 29 q-33 106 -60 211t-50 214q-54 -100 -122 -226t-153 -283zM919 1649l200 80l152 -144l-106 -68z" />
<glyph unicode="&#xc1;" horiz-adv-x="2022" d="M-3 -92q117 163 248.5 360t278.5 433q133 212 236 383t177 305l324 80q216 -683 817 -1179l-667 -210q-89 135 -171 347q-78 -20 -145.5 -36t-128.5 -27q-88 -18 -166 -30.5t-148 -19.5q-67 -115 -123.5 -214t-107.5 -184zM778 546q60 11 108.5 20.5t87.5 18.5 q23 5 69.5 16t119.5 29q-33 106 -60 211t-50 214q-54 -100 -122 -226t-153 -283zM1047 1517l246 272l208 47l-375 -331z" />
<glyph unicode="&#xc2;" horiz-adv-x="2028" d="M2 -92q117 163 248.5 360t279.5 433q133 212 235.5 383t176.5 305l324 80q216 -683 817 -1179l-667 -210q-89 135 -171 347q-78 -20 -145.5 -36t-128.5 -27q-88 -18 -165.5 -30.5t-147.5 -19.5q-67 -115 -124 -214t-108 -184zM783 546q60 11 108.5 20.5t87.5 18.5 q23 5 69.5 16t119.5 29q-33 106 -60 211t-49 214q-54 -100 -122.5 -226t-153.5 -283zM805 1451l293 222l105 32l242 -53l-164 -99l-149 56l-222 -170z" />
<glyph unicode="&#xc3;" d="M0 -92q117 163 248.5 360t279.5 433q134 214 236.5 384.5t175.5 303.5l324 80q216 -683 817 -1179l-666 -210q-44 66 -86.5 152t-85.5 195q-156 -41 -273 -63q-88 -18 -166 -30.5t-148 -19.5q-67 -115 -124 -214t-108 -184zM663 1437q103 73 187 120.5t156 70.5 q56 21 128 13t130 11q113 36 280 143l75 -66q-219 -140 -378 -188q-49 -19 -126 -14q-74 6 -127 -10q-48 -15 -107 -47t-132 -81zM782 546q117 21 195 39q23 5 70 16t120 29q-33 106 -60.5 211t-49.5 214q-54 -100 -122 -226t-153 -283z" />
<glyph unicode="&#xc4;" horiz-adv-x="2024" d="M-1 -92q117 163 248.5 360t278.5 433q134 214 236.5 384.5t175.5 303.5l325 80q217 -686 816 -1179l-666 -210q-44 66 -86.5 152t-85.5 195q-156 -41 -273 -63q-88 -18 -166 -30.5t-148 -19.5q-67 -115 -124 -214t-108 -184zM718 1394l45 140l297 103l-52 -171zM780 546 q120 21 196 39q22 5 69 16t120 29q-33 106 -60 211t-50 214q-54 -100 -122 -226t-153 -283zM1271 1550l28 162l321 92l-27 -150z" />
<glyph unicode="&#xc5;" d="M0 -92q117 163 248.5 360t279.5 433q134 214 236.5 384.5t175.5 303.5l324 80q216 -683 817 -1179l-666 -210q-44 66 -86.5 152t-85.5 195q-156 -41 -273 -63q-88 -18 -166 -30.5t-148 -19.5q-67 -115 -124 -214t-108 -184zM782 546q117 21 195 39q23 5 70 16t120 29 q-33 106 -60.5 211t-49.5 214q-54 -100 -122 -226t-153 -283zM843 1589q22 67 129 147q110 82 241 128q146 44 231 28q91 -16 80 -85q-14 -75 -123 -162q-121 -92 -272 -140q-149 -44 -233 -15q-79 24 -53 99zM1001 1633q-13 -36 29 -48q41 -11 113 9q73 25 126 66t61 77 q6 36 -33 47t-111 -11q-71 -25 -122 -64q-52 -40 -63 -76z" />
<glyph unicode="&#xc6;" horiz-adv-x="3471" d="M-26 -188q288 319 675 789q183 224 322.5 399t241.5 311l302 75q-12 -201 10 -395t79 -390l184 880q522 148 774.5 219t235.5 65q117 34 218 66t192 62l25 -191q-195 -49 -385 -100t-385 -105l-327 -94q-8 -51 -18 -131t-23 -192q227 53 442 106q147 37 295 78t305 86 l-11 -234q-131 -26 -267.5 -56.5t-287.5 -64.5q-118 -29 -243 -60t-261 -63q-14 -126 -26 -242t-22 -231q296 66 561 121t505 101q117 23 223 43t208 37l23 -326q-152 -23 -253 -39.5t-158 -24.5q-397 -68 -811 -145t-845 -163l8 41l-281 -87q-15 66 -24 152t-9 195 q-70 -18 -132.5 -33t-117.5 -27q-76 -14 -145 -24.5t-132 -16.5q-88 -112 -164 -208t-143 -181zM816 435q54 10 96.5 19t78.5 17q23 5 65.5 15t106.5 24q5 106 14.5 215t26.5 227q-67 -91 -163 -218.5t-225 -298.5z" />
<glyph unicode="&#xc8;" horiz-adv-x="1708" d="M-3 -135q151 403 281 761.5t239 672.5q462 128 685.5 190t206.5 57q100 30 189.5 57.5t168.5 53.5l-16 -188q-169 -42 -344.5 -89.5t-364.5 -101.5l-247 -68q-15 -51 -39.5 -129.5t-55.5 -187.5q97 21 192 43.5t191 46.5q128 31 256 65.5t264 74.5l-52 -222 q-112 -24 -229.5 -51t-244.5 -56q-103 -24 -211 -50t-225 -55q-68 -242 -123 -453q252 55 476 102t424 85q99 18 187 34.5t173 32.5l-43 -307q-131 -22 -215 -35.5t-126 -19.5q-335 -57 -682 -122.5t-715 -140.5zM985 1705l210 87l168 -143l-102 -69z" />
<glyph unicode="&#xc9;" horiz-adv-x="1708" d="M-3 -135q151 403 281 761.5t239 672.5q462 128 685.5 190t206.5 57q100 30 189.5 57.5t168.5 53.5l-16 -188q-169 -42 -344.5 -89.5t-364.5 -101.5l-247 -68q-15 -51 -39.5 -129.5t-55.5 -187.5q97 21 192 43.5t191 46.5q128 31 256 65.5t264 74.5l-52 -222 q-112 -24 -229.5 -51t-244.5 -56q-103 -24 -211 -50t-225 -55q-68 -242 -123 -453q252 55 476 102t424 85q99 18 187 34.5t173 32.5l-43 -307q-131 -22 -215 -35.5t-126 -19.5q-335 -57 -682 -122.5t-715 -140.5zM936 1517l250 272l204 47l-371 -327z" />
<glyph unicode="&#xca;" horiz-adv-x="1712" d="M-2 -135q153 405 282 761.5t238 672.5q463 128 686.5 190t206.5 57q100 30 189.5 57.5t168.5 53.5l-17 -188q-168 -42 -343.5 -89.5t-365.5 -101.5l-247 -68q-16 -49 -39 -128t-55 -189q97 21 191.5 43.5t191.5 46.5q128 31 255.5 65.5t263.5 74.5l-52 -222 q-112 -24 -229 -51t-244 -56q-103 -24 -211 -50t-225 -55q-33 -121 -64.5 -234t-59.5 -219q254 55 476.5 102t423.5 85q99 18 187.5 34.5t173.5 32.5l-43 -307q-131 -22 -215 -35.5t-126 -19.5q-335 -57 -682.5 -122.5t-715.5 -140.5zM833 1497l291 220l111 36l256 -53 l-169 -103l-159 57l-223 -173z" />
<glyph unicode="&#xcb;" horiz-adv-x="1710" d="M-3 -135q151 403 281 761.5t239 672.5q462 128 685.5 190t206.5 57q100 30 189.5 57.5t168.5 53.5l-16 -188q-169 -42 -344.5 -89.5t-364.5 -101.5l-247 -68q-15 -51 -39.5 -129.5t-55.5 -187.5q97 21 192 43.5t191 46.5q128 31 256 65.5t264 74.5l-52 -222 q-112 -24 -229.5 -51t-244.5 -56q-103 -24 -211 -50t-225 -55q-68 -242 -123 -453q252 55 476 102t424 85q99 18 187 34.5t173 32.5l-43 -307q-131 -22 -215 -35.5t-126 -19.5q-335 -57 -682 -122.5t-715 -140.5zM711 1427l40 138l299 104l-46 -171zM1273 1582l24 166 l326 92l-20 -150z" />
<glyph unicode="&#xcc;" horiz-adv-x="1201" d="M7 -90l128 326q49 11 114.5 27t150.5 36q27 79 54 168.5t53 192.5q48 187 76.5 330t39.5 249q-40 -10 -99.5 -25.5t-140.5 -37.5l31 162q137 40 316 89l176 54q100 30 190 58.5t171 54.5l11 -160q-29 -11 -98.5 -33.5t-184.5 -57.5q-1 -45 -10 -109.5t-25 -149.5 q-36 -218 -71.5 -390t-71.5 -303q136 31 228 48q156 30 233 39l-59 -347q-125 -6 -406 -54q-239 -40 -438.5 -81t-367.5 -86zM564 1652l200 80l153 -143l-101 -67z" />
<glyph unicode="&#xcd;" horiz-adv-x="1196" d="M1 -90l129 326q49 11 114.5 27t150.5 36q27 79 54 168.5t53 192.5q48 187 76 330t40 249q-40 -10 -99.5 -25.5t-140.5 -37.5l31 162q137 40 316 89l175 54q100 30 190.5 58.5t171.5 54.5l11 -160q-27 -10 -97.5 -33t-185.5 -58q-1 -45 -10 -109.5t-25 -149.5 q-36 -218 -71.5 -390t-71.5 -303q136 31 228 48q156 30 233 39l-59 -347q-125 -6 -406 -54q-239 -40 -439 -81t-368 -86zM680 1517l250 272l204 47l-371 -327z" />
<glyph unicode="&#xce;" horiz-adv-x="1205" d="M8 -90l129 326q49 11 114.5 27t150.5 36q26 79 53.5 168.5t53.5 192.5q48 187 76 330t40 249q-40 -10 -99.5 -25.5t-140.5 -37.5l30 162q72 20 149 42t167 47l176 54q100 30 190.5 58.5t171.5 54.5l11 -160q-27 -10 -97.5 -33t-185.5 -58q-1 -45 -10 -109.5t-25 -149.5 q-36 -218 -71.5 -390t-71.5 -303q136 31 228 48q156 30 233 39l-59 -347q-125 -6 -406 -54q-239 -40 -439 -81t-368 -86zM512 1475l290 221l107 33l251 -53l-165 -99l-159 53l-220 -169z" />
<glyph unicode="&#xcf;" horiz-adv-x="1203" d="M3 -90l129 326q49 11 114.5 27t150.5 36q26 79 53.5 168.5t53.5 192.5q48 187 76 330t40 249q-40 -10 -99.5 -25.5t-140.5 -37.5l30 162q72 20 149 42t167 47l176 54q100 30 190.5 58.5t171.5 54.5l10 -160q-29 -11 -98 -33.5t-184 -57.5q-1 -45 -10 -109.5t-25 -149.5 q-74 -434 -144 -693q70 16 127 28t102 20q154 30 232 39l-58 -347q-125 -6 -406 -54q-239 -40 -439 -81t-368 -86zM457 1427l38 138l300 104l-45 -171zM1019 1582l24 166l326 92l-24 -150z" />
<glyph unicode="&#xd1;" horiz-adv-x="2036" d="M-11 -155q194 356 339.5 669t244.5 590q15 46 28 85.5t24 73.5l345 138l500 -739q30 169 52.5 314.5t37.5 274.5q14 103 15.5 174t-5.5 116l440 167q-17 -81 -25 -191t-9 -251q-4 -293 16.5 -560.5t64.5 -517.5l-699 -69l-521 920q-120 -338 -216 -675 q-64 -220 -106 -408zM841 1493q206 149 349 195q60 19 133 12q71 -7 138 13q119 38 284 147l86 -63q-219 -143 -384 -193q-57 -19 -137 -16q-75 4 -132 -11q-49 -16 -109.5 -48t-133.5 -83z" />
<glyph unicode="&#xd2;" horiz-adv-x="1954" d="M213 662q95 244 354 470q272 238 631 343q385 117 635 12q258 -108 264 -371q10 -305 -294 -630q-370 -397 -907 -486q-493 -80 -662 184q-133 198 -21 478zM579 713q-59 -179 9 -291q88 -159 373 -103q289 56 491 295q152 188 167 369q14 167 -94 248q-123 88 -366 20 q-231 -65 -392 -232q-138 -141 -188 -306zM1063 1705l209 87l166 -143l-102 -69z" />
<glyph unicode="&#xd3;" horiz-adv-x="1952" d="M213 662q95 244 354 470q272 238 631 343q385 117 635 12q258 -108 264 -371q10 -305 -294 -630q-370 -397 -907 -486q-493 -80 -662 184q-133 198 -21 478zM579 713q-59 -179 9 -291q88 -159 373 -103q289 56 491 295q152 188 167 369q14 167 -94 248q-123 88 -366 20 q-231 -65 -392 -232q-138 -141 -188 -306zM1011 1517l250 272l208 47l-376 -331z" />
<glyph unicode="&#xd4;" horiz-adv-x="1958" d="M214 662q97 244 355 470q272 238 631 343q385 117 635 12q258 -108 264 -371q10 -305 -294 -630q-370 -397 -907 -486q-494 -80 -663 184q-132 198 -21 478zM580 713q-58 -177 10 -291q89 -158 372 -103q289 56 492 295q151 184 166 369q15 167 -93 248q-128 87 -367 20 q-231 -65 -392 -232q-139 -143 -188 -306zM909 1497l294 220l107 36l256 -53l-165 -103l-163 57l-222 -173z" />
<glyph unicode="&#xd5;" horiz-adv-x="1956" d="M213 662q95 244 354 470q272 238 631 343q385 117 635 12q258 -108 264 -371q10 -305 -294 -630q-370 -397 -907 -486q-493 -80 -662 184q-133 198 -21 478zM579 713q-59 -179 9 -291q88 -159 373 -103q289 56 491 295q152 188 167 369q14 167 -94 248q-123 88 -366 20 q-231 -65 -392 -232q-138 -141 -188 -306zM807 1493q205 148 349 195q61 17 133 11t138 14q120 37 286 147l86 -63q-220 -144 -386 -193q-59 -19 -138 -16q-74 4 -131 -11q-49 -16 -109.5 -48t-133.5 -83z" />
<glyph unicode="&#xd6;" horiz-adv-x="1958" d="M214 662q97 244 355 470q272 238 631 343q385 117 635 12q258 -108 264 -371q10 -305 -294 -630q-370 -397 -907 -486q-494 -80 -663 184q-132 198 -21 478zM580 713q-58 -177 10 -291q89 -158 372 -103q289 56 492 295q151 184 166 369q15 167 -93 248q-128 87 -367 20 q-231 -65 -392 -232q-139 -143 -188 -306zM789 1427l39 138l300 104l-47 -171zM1350 1582l24 166l329 92l-25 -150z" />
<glyph unicode="&#xd7;" horiz-adv-x="1369" d="M286 591q69 48 159 112.5t205 149.5q-54 24 -127.5 56t-170.5 74l207 169l319 -125q58 45 143.5 110.5t200.5 156.5l188 -70q-66 -48 -154.5 -113t-203.5 -150q57 -24 150.5 -56t228.5 -72l-246 -227q-67 38 -157.5 82.5t-211.5 96.5q-126 -97 -220 -171.5t-158 -127.5z " />
<glyph unicode="&#xd8;" horiz-adv-x="1935" d="M161 323q-35 157 36 339q97 244 355 470q272 238 631 343q31 11 64 19.5t69 15.5l98 156l295 54q-20 -33 -48 -79.5t-64 -106.5q218 -12 348 -121q136 -119 137 -297q11 -305 -295 -630q-371 -398 -906 -486q-54 -8 -99.5 -12.5t-87.5 -6.5q-32 -63 -69.5 -134.5 t-80.5 -153.5l-350 56l189 292q-185 87 -222 282zM563 713q-70 -214 40 -331l553 872l-13 -3q-228 -63 -392 -230q-139 -146 -188 -308zM874 307q15 2 32.5 5t38.5 7q293 56 492 295q151 184 166 369q21 224 -170 283q-140 -236 -279 -474t-280 -485z" />
<glyph unicode="&#xd9;" horiz-adv-x="1773" d="M178 507q1 6 72.5 192t213.5 552l341 126q-71 -209 -118.5 -356.5t-74.5 -235.5q-14 -48 -25.5 -87t-19.5 -68q-45 -175 -7 -243q61 -104 323 -52q287 56 427 215q97 109 119 298q7 70 16.5 166t22.5 222q20 238 33 326l410 146q-1 -23 -1 -62v-93q1 -54 1 -95v-69 l-2 -350q-2 -131 -9 -210q-41 -287 -321 -513q-301 -241 -755 -316q-473 -80 -627 87q-128 137 -19 420zM1002 1705l207 87l169 -143l-100 -69z" />
<glyph unicode="&#xda;" horiz-adv-x="1773" d="M180 507q1 6 72.5 192t213.5 552l341 126q-71 -209 -118.5 -356.5t-74.5 -235.5q-14 -48 -25.5 -87t-19.5 -68q-45 -175 -7 -243q61 -104 323 -52q287 56 427 215q97 109 119 298q7 70 16.5 166t22.5 222q20 238 33 326l410 146q-1 -23 -1 -62v-93q1 -54 1 -95v-69 l-2 -350q0 -66 -2.5 -118t-7.5 -92q-41 -287 -320 -513q-301 -241 -755 -316q-473 -80 -627 87q-128 137 -19 420zM955 1517l249 272l203 47l-374 -331z" />
<glyph unicode="&#xdb;" horiz-adv-x="1777" d="M181 507q1 6 72.5 192t213.5 552l341 126q-71 -209 -118 -356.5t-74 -235.5q-14 -48 -25.5 -86.5t-19.5 -68.5q-46 -174 -8 -243q64 -104 324 -52q286 55 426 215q97 109 120 298q7 70 16 166t22 222q20 237 33 326l410 146v-155q1 -54 1 -95v-69l-3 -350q0 -131 -9 -210 q-41 -287 -320 -513q-301 -241 -755 -316q-473 -80 -627 87q-128 137 -20 420zM850 1497l293 220l106 36l257 -53l-165 -103l-161 57l-222 -173z" />
<glyph unicode="&#xdc;" horiz-adv-x="1777" d="M181 507q1 6 72.5 192t213.5 552l341 126q-71 -209 -118 -356.5t-74 -235.5q-14 -48 -25.5 -86.5t-19.5 -68.5q-46 -174 -8 -243q64 -104 324 -52q286 55 426 215q97 109 120 298q7 70 16 166t22 222q20 237 33 326l410 146v-155q1 -54 1 -95v-69l-3 -350q0 -131 -9 -210 q-41 -287 -320 -513q-301 -241 -755 -316q-473 -80 -627 87q-128 137 -20 420zM728 1427l42 138l300 104l-49 -171zM1293 1582l24 166l327 92l-24 -150z" />
<glyph unicode="&#xdd;" horiz-adv-x="1468" d="M274 1234l320 125q73 -66 150 -152t160 -192q232 303 537 594l376 87q-183 -186 -372 -400.5t-389 -462.5q-51 -244 -119 -446.5t-159 -371.5l-397 -39q173 315 288 722q-61 96 -120 181.5t-117 164.5q-48 66 -87 113t-71 77zM810 1517l249 272l207 47l-374 -331z" />
<glyph unicode="&#xde;" horiz-adv-x="1990" d="M204 -143q97 220 183.5 430.5t164.5 422.5q66 180 111 322.5t70 249.5q36 10 115 30t205 50q-16 -40 -33 -86.5t-34 -101.5q1158 283 1154 -90q2 -224 -541 -505q-185 -94 -398 -179t-459 -161l-70 -271zM833 553q617 172 762 343q21 27 24 41q17 131 -482 3 q-17 -4 -42.5 -11t-60.5 -17q-34 -10 -60 -16.5t-44 -11.5z" />
<glyph unicode="&#xdf;" horiz-adv-x="2493" d="M136 -418q82 180 161.5 367t158.5 391l114 286q15 40 34.5 94t44.5 124q26 70 45 119.5t31 80.5q59 146 242 238q51 23 148.5 57t247.5 79q381 115 580 127q299 17 293 -183q-3 -95 -117 -196q-114 -99 -300 -162q661 136 675 -255q10 -315 -471 -529 q-146 -64 -359 -122.5t-503 -112.5l87 331q543 102 569 314q18 162 -204 150q-54 -4 -156 -24t-255 -55l48 227q181 48 278 103q126 67 144 167q25 145 -414 24q-157 -46 -181 -123q-8 -28 -21.5 -72t-31.5 -104t-31 -106t-22 -80q-78 -252 -153 -519.5t-148 -558.5 l-280 -41z" />
<glyph unicode="&#xe0;" horiz-adv-x="2022" d="M-1 -92q117 163 248.5 360t278.5 433q134 214 236.5 384.5t175.5 303.5l325 80q217 -686 816 -1179l-666 -210q-44 66 -86.5 152t-85.5 195q-156 -41 -273 -63q-88 -18 -166 -30.5t-148 -19.5q-67 -115 -124 -214t-108 -184zM780 546q120 21 196 39q22 5 69 16t120 29 q-33 106 -60 211t-50 214q-54 -100 -122 -226t-153 -283zM919 1649l200 80l152 -144l-106 -68z" />
<glyph unicode="&#xe1;" horiz-adv-x="2022" d="M-3 -92q117 163 248.5 360t278.5 433q133 212 236 383t177 305l324 80q216 -683 817 -1179l-667 -210q-89 135 -171 347q-78 -20 -145.5 -36t-128.5 -27q-88 -18 -166 -30.5t-148 -19.5q-67 -115 -123.5 -214t-107.5 -184zM778 546q60 11 108.5 20.5t87.5 18.5 q23 5 69.5 16t119.5 29q-33 106 -60 211t-50 214q-54 -100 -122 -226t-153 -283zM1047 1517l246 272l208 47l-375 -331z" />
<glyph unicode="&#xe2;" horiz-adv-x="2028" d="M2 -92q117 163 248.5 360t279.5 433q133 212 235.5 383t176.5 305l324 80q216 -683 817 -1179l-667 -210q-89 135 -171 347q-78 -20 -145.5 -36t-128.5 -27q-88 -18 -165.5 -30.5t-147.5 -19.5q-67 -115 -124 -214t-108 -184zM783 546q60 11 108.5 20.5t87.5 18.5 q23 5 69.5 16t119.5 29q-33 106 -60 211t-49 214q-54 -100 -122.5 -226t-153.5 -283zM805 1451l293 222l105 32l242 -53l-164 -99l-149 56l-222 -170z" />
<glyph unicode="&#xe3;" d="M0 -92q117 163 248.5 360t279.5 433q134 214 236.5 384.5t175.5 303.5l324 80q216 -683 817 -1179l-666 -210q-44 66 -86.5 152t-85.5 195q-156 -41 -273 -63q-88 -18 -166 -30.5t-148 -19.5q-67 -115 -124 -214t-108 -184zM663 1437q103 73 187 120.5t156 70.5 q56 21 128 13t130 11q113 36 280 143l75 -66q-219 -140 -378 -188q-49 -19 -126 -14q-74 6 -127 -10q-48 -15 -107 -47t-132 -81zM782 546q117 21 195 39q23 5 70 16t120 29q-33 106 -60.5 211t-49.5 214q-54 -100 -122 -226t-153 -283z" />
<glyph unicode="&#xe4;" horiz-adv-x="2024" d="M-1 -92q117 163 248.5 360t278.5 433q134 214 236.5 384.5t175.5 303.5l325 80q217 -686 816 -1179l-666 -210q-44 66 -86.5 152t-85.5 195q-156 -41 -273 -63q-88 -18 -166 -30.5t-148 -19.5q-67 -115 -124 -214t-108 -184zM718 1394l45 140l297 103l-52 -171zM780 546 q120 21 196 39q22 5 69 16t120 29q-33 106 -60 211t-50 214q-54 -100 -122 -226t-153 -283zM1271 1550l28 162l321 92l-27 -150z" />
<glyph unicode="&#xe5;" d="M0 -92q117 163 248.5 360t279.5 433q134 214 236.5 384.5t175.5 303.5l324 80q216 -683 817 -1179l-666 -210q-44 66 -86.5 152t-85.5 195q-156 -41 -273 -63q-88 -18 -166 -30.5t-148 -19.5q-67 -115 -124 -214t-108 -184zM782 546q117 21 195 39q23 5 70 16t120 29 q-33 106 -60.5 211t-49.5 214q-54 -100 -122 -226t-153 -283zM843 1589q22 67 129 147q110 82 241 128q146 44 231 28q91 -16 80 -85q-14 -75 -123 -162q-121 -92 -272 -140q-149 -44 -233 -15q-79 24 -53 99zM1001 1633q-13 -36 29 -48q41 -11 113 9q73 25 126 66t61 77 q6 36 -33 47t-111 -11q-71 -25 -122 -64q-52 -40 -63 -76z" />
<glyph unicode="&#xe6;" horiz-adv-x="3471" d="M-26 -188q288 319 675 789q183 224 322.5 399t241.5 311l302 75q-12 -201 10 -395t79 -390l184 880q522 148 774.5 219t235.5 65q117 34 218 66t192 62l25 -191q-195 -49 -385 -100t-385 -105l-327 -94q-8 -51 -18 -131t-23 -192q227 53 442 106q147 37 295 78t305 86 l-11 -234q-131 -26 -267.5 -56.5t-287.5 -64.5q-118 -29 -243 -60t-261 -63q-14 -126 -26 -242t-22 -231q296 66 561 121t505 101q117 23 223 43t208 37l23 -326q-152 -23 -253 -39.5t-158 -24.5q-397 -68 -811 -145t-845 -163l8 41l-281 -87q-15 66 -24 152t-9 195 q-70 -18 -132.5 -33t-117.5 -27q-76 -14 -145 -24.5t-132 -16.5q-88 -112 -164 -208t-143 -181zM816 435q54 10 96.5 19t78.5 17q23 5 65.5 15t106.5 24q5 106 14.5 215t26.5 227q-67 -91 -163 -218.5t-225 -298.5z" />
<glyph unicode="&#xe8;" horiz-adv-x="1708" d="M-3 -135q151 403 281 761.5t239 672.5q462 128 685.5 190t206.5 57q100 30 189.5 57.5t168.5 53.5l-16 -188q-169 -42 -344.5 -89.5t-364.5 -101.5l-247 -68q-15 -51 -39.5 -129.5t-55.5 -187.5q97 21 192 43.5t191 46.5q128 31 256 65.5t264 74.5l-52 -222 q-112 -24 -229.5 -51t-244.5 -56q-103 -24 -211 -50t-225 -55q-68 -242 -123 -453q252 55 476 102t424 85q99 18 187 34.5t173 32.5l-43 -307q-131 -22 -215 -35.5t-126 -19.5q-335 -57 -682 -122.5t-715 -140.5zM985 1705l210 87l168 -143l-102 -69z" />
<glyph unicode="&#xe9;" horiz-adv-x="1708" d="M-3 -135q151 403 281 761.5t239 672.5q462 128 685.5 190t206.5 57q100 30 189.5 57.5t168.5 53.5l-16 -188q-169 -42 -344.5 -89.5t-364.5 -101.5l-247 -68q-15 -51 -39.5 -129.5t-55.5 -187.5q97 21 192 43.5t191 46.5q128 31 256 65.5t264 74.5l-52 -222 q-112 -24 -229.5 -51t-244.5 -56q-103 -24 -211 -50t-225 -55q-68 -242 -123 -453q252 55 476 102t424 85q99 18 187 34.5t173 32.5l-43 -307q-131 -22 -215 -35.5t-126 -19.5q-335 -57 -682 -122.5t-715 -140.5zM936 1517l250 272l204 47l-371 -327z" />
<glyph unicode="&#xea;" horiz-adv-x="1712" d="M-2 -135q153 405 282 761.5t238 672.5q463 128 686.5 190t206.5 57q100 30 189.5 57.5t168.5 53.5l-17 -188q-168 -42 -343.5 -89.5t-365.5 -101.5l-247 -68q-16 -49 -39 -128t-55 -189q97 21 191.5 43.5t191.5 46.5q128 31 255.5 65.5t263.5 74.5l-52 -222 q-112 -24 -229 -51t-244 -56q-103 -24 -211 -50t-225 -55q-33 -121 -64.5 -234t-59.5 -219q254 55 476.5 102t423.5 85q99 18 187.5 34.5t173.5 32.5l-43 -307q-131 -22 -215 -35.5t-126 -19.5q-335 -57 -682.5 -122.5t-715.5 -140.5zM833 1497l291 220l111 36l256 -53 l-169 -103l-159 57l-223 -173z" />
<glyph unicode="&#xeb;" horiz-adv-x="1710" d="M-3 -135q151 403 281 761.5t239 672.5q462 128 685.5 190t206.5 57q100 30 189.5 57.5t168.5 53.5l-16 -188q-169 -42 -344.5 -89.5t-364.5 -101.5l-247 -68q-15 -51 -39.5 -129.5t-55.5 -187.5q97 21 192 43.5t191 46.5q128 31 256 65.5t264 74.5l-52 -222 q-112 -24 -229.5 -51t-244.5 -56q-103 -24 -211 -50t-225 -55q-68 -242 -123 -453q252 55 476 102t424 85q99 18 187 34.5t173 32.5l-43 -307q-131 -22 -215 -35.5t-126 -19.5q-335 -57 -682 -122.5t-715 -140.5zM711 1427l40 138l299 104l-46 -171zM1273 1582l24 166 l326 92l-20 -150z" />
<glyph unicode="&#xec;" horiz-adv-x="582" d="M14 -48q54 168 109.5 365t114.5 427q52 193 92 356.5t69 300.5l407 133q-59 -225 -126 -623q-43 -251 -69.5 -455.5t-36.5 -366.5zM478 1705l207 87l169 -143l-100 -69z" />
<glyph unicode="&#xed;" horiz-adv-x="582" d="M16 -48q54 169 109 364.5t115 427.5q51 194 91 356.5t69 300.5l407 133q-30 -112 -61.5 -266.5t-63.5 -356.5q-43 -253 -69.5 -456t-37.5 -366zM431 1517l249 272l203 47l-374 -331z" />
<glyph unicode="&#xee;" horiz-adv-x="657" d="M47 -44q54 168 109.5 364.5t115.5 425.5q50 194 89 357t68 300l412 135q-30 -112 -61.5 -267.5t-66.5 -357.5q-42 -251 -67 -455.5t-36 -368.5zM344 1497l289 220l110 36l253 -53l-165 -103l-160 57l-223 -173z" />
<glyph unicode="&#xef;" horiz-adv-x="867" d="M145 -44q52 169 108 364.5t116 425.5q51 195 90 357t68 300l408 135q-29 -112 -59.5 -267.5t-65.5 -357.5q-83 -500 -102 -821zM318 1427l42 141l297 101l-49 -171zM880 1582l24 166l327 92l-22 -150z" />
<glyph unicode="&#xf1;" horiz-adv-x="2036" d="M-11 -155q194 356 339.5 669t244.5 590q15 46 28 85.5t24 73.5l345 138l500 -739q30 169 52.5 314.5t37.5 274.5q14 103 15.5 174t-5.5 116l440 167q-17 -81 -25 -191t-9 -251q-4 -293 16.5 -560.5t64.5 -517.5l-699 -69l-521 920q-120 -338 -216 -675 q-64 -220 -106 -408zM841 1493q206 149 349 195q60 19 133 12q71 -7 138 13q119 38 284 147l86 -63q-219 -143 -384 -193q-57 -19 -137 -16q-75 4 -132 -11q-49 -16 -109.5 -48t-133.5 -83z" />
<glyph unicode="&#xf2;" horiz-adv-x="1954" d="M213 662q95 244 354 470q272 238 631 343q385 117 635 12q258 -108 264 -371q10 -305 -294 -630q-370 -397 -907 -486q-493 -80 -662 184q-133 198 -21 478zM579 713q-59 -179 9 -291q88 -159 373 -103q289 56 491 295q152 188 167 369q14 167 -94 248q-123 88 -366 20 q-231 -65 -392 -232q-138 -141 -188 -306zM1063 1705l209 87l166 -143l-102 -69z" />
<glyph unicode="&#xf3;" horiz-adv-x="1952" d="M213 662q95 244 354 470q272 238 631 343q385 117 635 12q258 -108 264 -371q10 -305 -294 -630q-370 -397 -907 -486q-493 -80 -662 184q-133 198 -21 478zM579 713q-59 -179 9 -291q88 -159 373 -103q289 56 491 295q152 188 167 369q14 167 -94 248q-123 88 -366 20 q-231 -65 -392 -232q-138 -141 -188 -306zM1011 1517l250 272l208 47l-376 -331z" />
<glyph unicode="&#xf4;" horiz-adv-x="1958" d="M214 662q97 244 355 470q272 238 631 343q385 117 635 12q258 -108 264 -371q10 -305 -294 -630q-370 -397 -907 -486q-494 -80 -663 184q-132 198 -21 478zM580 713q-58 -177 10 -291q89 -158 372 -103q289 56 492 295q151 184 166 369q15 167 -93 248q-128 87 -367 20 q-231 -65 -392 -232q-139 -143 -188 -306zM909 1497l294 220l107 36l256 -53l-165 -103l-163 57l-222 -173z" />
<glyph unicode="&#xf5;" horiz-adv-x="1956" d="M213 662q95 244 354 470q272 238 631 343q385 117 635 12q258 -108 264 -371q10 -305 -294 -630q-370 -397 -907 -486q-493 -80 -662 184q-133 198 -21 478zM579 713q-59 -179 9 -291q88 -159 373 -103q289 56 491 295q152 188 167 369q14 167 -94 248q-123 88 -366 20 q-231 -65 -392 -232q-138 -141 -188 -306zM807 1493q205 148 349 195q61 17 133 11t138 14q120 37 286 147l86 -63q-220 -144 -386 -193q-59 -19 -138 -16q-74 4 -131 -11q-49 -16 -109.5 -48t-133.5 -83z" />
<glyph unicode="&#xf6;" horiz-adv-x="1958" d="M214 662q97 244 355 470q272 238 631 343q385 117 635 12q258 -108 264 -371q10 -305 -294 -630q-370 -397 -907 -486q-494 -80 -663 184q-132 198 -21 478zM580 713q-58 -177 10 -291q89 -158 372 -103q289 56 492 295q151 184 166 369q15 167 -93 248q-128 87 -367 20 q-231 -65 -392 -232q-139 -143 -188 -306zM789 1427l39 138l300 104l-47 -171zM1350 1582l24 166l329 92l-25 -150z" />
<glyph unicode="&#xf7;" horiz-adv-x="1183" d="M229 684l71 181q424 103 636 156q114 29 210 55.5t180 49.5l-35 -189q-176 -32 -485 -108q-167 -38 -309 -74t-268 -71zM537 550q11 51 68 98q57 48 138 65q72 16 121 -8q46 -24 36 -75q-8 -51 -69 -102q-58 -49 -142 -69q-41 -9 -72 -5.5t-51 16.5t-27.5 33.5t-1.5 46.5 zM676 1155q9 43 60 85q52 42 123 62q69 21 112 3q44 -18 35 -59q-7 -41 -62 -88q-53 -44 -130 -66q-72 -17 -109.5 2t-28.5 61z" />
<glyph unicode="&#xf8;" horiz-adv-x="1935" d="M161 323q-35 157 36 339q97 244 355 470q272 238 631 343q31 11 64 19.5t69 15.5l98 156l295 54q-20 -33 -48 -79.5t-64 -106.5q218 -12 348 -121q136 -119 137 -297q11 -305 -295 -630q-371 -398 -906 -486q-54 -8 -99.5 -12.5t-87.5 -6.5q-32 -63 -69.5 -134.5 t-80.5 -153.5l-350 56l189 292q-185 87 -222 282zM563 713q-70 -214 40 -331l553 872l-13 -3q-231 -65 -392 -232q-139 -143 -188 -306zM874 307q15 2 32.5 5t38.5 7q293 56 492 295q151 184 166 369q21 224 -170 283q-140 -236 -279 -474t-280 -485z" />
<glyph unicode="&#xf9;" horiz-adv-x="1773" d="M178 507q1 6 72.5 192t213.5 552l341 126q-71 -209 -118.5 -356.5t-74.5 -235.5q-14 -48 -25.5 -87t-19.5 -68q-45 -175 -7 -243q61 -104 323 -52q287 56 427 215q97 109 119 298q7 70 16.5 166t22.5 222q20 238 33 326l410 146q-1 -23 -1 -62v-93q1 -54 1 -95v-69 l-2 -350q-2 -131 -9 -210q-41 -287 -321 -513q-301 -241 -755 -316q-473 -80 -627 87q-128 137 -19 420zM1002 1705l207 87l169 -143l-100 -69z" />
<glyph unicode="&#xfa;" horiz-adv-x="1773" d="M180 507q1 6 72.5 192t213.5 552l341 126q-71 -209 -118.5 -356.5t-74.5 -235.5q-14 -48 -25.5 -87t-19.5 -68q-45 -175 -7 -243q61 -104 323 -52q287 56 427 215q97 109 119 298q7 70 16.5 166t22.5 222q20 238 33 326l410 146q-1 -23 -1 -62v-93q1 -54 1 -95v-69 l-2 -350q0 -66 -2.5 -118t-7.5 -92q-41 -287 -320 -513q-301 -241 -755 -316q-473 -80 -627 87q-128 137 -19 420zM955 1517l249 272l203 47l-374 -331z" />
<glyph unicode="&#xfb;" horiz-adv-x="1777" d="M181 507q1 6 72.5 192t213.5 552l341 126q-71 -209 -118 -356.5t-74 -235.5q-14 -48 -25.5 -86.5t-19.5 -68.5q-46 -174 -8 -243q64 -104 324 -52q286 55 426 215q97 109 120 298q7 70 16 166t22 222q20 237 33 326l410 146v-155q1 -54 1 -95v-69l-3 -350q0 -131 -9 -210 q-41 -287 -320 -513q-301 -241 -755 -316q-473 -80 -627 87q-128 137 -20 420zM850 1497l293 220l106 36l257 -53l-165 -103l-161 57l-222 -173z" />
<glyph unicode="&#xfc;" horiz-adv-x="1777" d="M181 507q1 6 72.5 192t213.5 552l341 126q-71 -209 -118 -356.5t-74 -235.5q-14 -48 -25.5 -86.5t-19.5 -68.5q-46 -174 -8 -243q64 -104 324 -52q286 55 426 215q97 109 120 298q7 70 16 166t22 222q20 237 33 326l410 146v-155q1 -54 1 -95v-69l-3 -350q0 -131 -9 -210 q-41 -287 -320 -513q-301 -241 -755 -316q-473 -80 -627 87q-128 137 -20 420zM728 1427l42 138l300 104l-49 -171zM1293 1582l24 166l327 92l-24 -150z" />
<glyph unicode="&#xfd;" horiz-adv-x="1468" d="M274 1234l320 125q73 -66 150 -152t160 -192q232 303 537 594l376 87q-183 -186 -372 -400.5t-389 -462.5q-51 -244 -119 -446.5t-159 -371.5l-397 -39q173 315 288 722q-61 96 -120 181.5t-117 164.5q-48 66 -87 113t-71 77zM810 1517l249 272l207 47l-374 -331z" />
<glyph unicode="&#xfe;" horiz-adv-x="1990" d="M204 -143q97 220 183.5 430.5t164.5 422.5q66 180 111 322.5t70 249.5q36 10 115 30t205 50q-16 -40 -33 -86.5t-34 -101.5q1158 283 1154 -90q2 -224 -541 -505q-185 -94 -398 -179t-459 -161l-70 -271zM833 553q617 172 762 343q21 27 24 41q17 131 -482 3 q-17 -4 -42.5 -11t-60.5 -17q-34 -10 -60 -16.5t-44 -11.5z" />
<glyph unicode="&#xff;" horiz-adv-x="1469" d="M274 1234l320 125q73 -66 150 -152t160 -192q232 303 537 594l376 87q-183 -186 -372 -400.5t-389 -462.5q-51 -244 -119 -446.5t-159 -371.5l-397 -39q173 315 288 722q-61 96 -120 181.5t-117 164.5q-48 66 -87 113t-71 77zM585 1427l38 138l300 104l-45 -171z M1147 1582l25 166l328 92l-23 -150z" />
<glyph unicode="&#x152;" horiz-adv-x="3521" d="M301 87q-89 195 41 468q119 242 371 457q276 235 599 329q257 77 435 38l21 99q1045 294 1011 282q114 34 215 66t194 62l24 -192q-195 -50 -467.5 -124t-628.5 -174q-6 -52 -16.5 -131.5t-26.5 -191.5q115 26 225 52.5t219 55.5q146 35 293 75t303 85l-13 -232 q-129 -28 -265.5 -58.5t-282.5 -64.5q-121 -28 -246.5 -58.5t-261.5 -64.5q-15 -126 -26 -240.5t-18 -226.5q294 63 556 116.5t499 99.5q115 23 222 43.5t209 38.5l22 -326q-154 -23 -254.5 -39.5t-154.5 -26.5q-396 -66 -807 -141.5t-843 -162.5l38 171 q-296 -215 -631 -270q-435 -72 -555 186zM643 311q57 -152 312 -104q262 49 462 279q158 179 196 355q35 167 -46 250q-96 88 -318 25q-206 -56 -375 -220q-141 -141 -203 -295q-73 -174 -28 -290z" />
<glyph unicode="&#x153;" horiz-adv-x="3521" d="M301 87q-89 195 41 468q119 242 371 457q276 235 599 329q257 77 435 38l21 99q1045 294 1011 282q114 34 215 66t194 62l24 -192q-195 -50 -467.5 -124t-628.5 -174q-6 -52 -16.5 -131.5t-26.5 -191.5q115 26 225 52.5t219 55.5q146 35 293 75t303 85l-13 -232 q-129 -28 -265.5 -58.5t-282.5 -64.5q-121 -28 -246.5 -58.5t-261.5 -64.5q-15 -126 -26 -240.5t-18 -226.5q294 63 556 116.5t499 99.5q115 23 222 43.5t209 38.5l22 -326q-154 -23 -254.5 -39.5t-154.5 -26.5q-396 -66 -807 -141.5t-843 -162.5l38 171 q-296 -215 -631 -270q-435 -72 -555 186zM643 311q57 -152 312 -104q262 49 462 279q158 179 196 355q35 167 -46 250q-96 88 -318 25q-206 -56 -375 -220q-141 -141 -203 -295q-74 -179 -28 -290z" />
<glyph unicode="&#x178;" horiz-adv-x="1630" d="M358 1234l320 125q73 -66 148.5 -152t160.5 -192q238 306 538 594l376 87q-183 -186 -372.5 -400.5t-388.5 -462.5q-98 -484 -279 -818l-397 -39q175 315 288 722q-61 95 -119.5 181t-116.5 165q-48 66 -87 113t-71 77zM668 1427l39 138l300 104l-46 -171zM1230 1582 l26 166l328 92l-24 -150z" />
<glyph unicode="&#x2c6;" horiz-adv-x="794" d="M453 1497l296 220l105 36l258 -53l-165 -103l-163 57l-223 -173z" />
<glyph unicode="&#x2dc;" horiz-adv-x="1027" d="M371 1481q203 148 347 192q57 19 130 12q73 -8 138 15q113 36 283 143l82 -63q-222 -143 -383 -191q-53 -19 -134 -16q-74 4 -128 -11q-49 -14 -109.5 -45.5t-132.5 -82.5z" />
<glyph unicode="&#x2000;" horiz-adv-x="948" />
<glyph unicode="&#x2001;" horiz-adv-x="1896" />
<glyph unicode="&#x2002;" horiz-adv-x="948" />
<glyph unicode="&#x2003;" horiz-adv-x="1896" />
<glyph unicode="&#x2004;" horiz-adv-x="632" />
<glyph unicode="&#x2005;" horiz-adv-x="474" />
<glyph unicode="&#x2006;" horiz-adv-x="316" />
<glyph unicode="&#x2007;" horiz-adv-x="316" />
<glyph unicode="&#x2008;" horiz-adv-x="237" />
<glyph unicode="&#x2009;" horiz-adv-x="379" />
<glyph unicode="&#x200a;" horiz-adv-x="105" />
<glyph unicode="&#x2010;" horiz-adv-x="1167" d="M222 684l71 181q430 103 636 156q114 29 210 55.5t180 49.5l-35 -189q-176 -32 -485 -108q-167 -38 -309 -74t-268 -71z" />
<glyph unicode="&#x2011;" horiz-adv-x="1167" d="M222 684l71 181q430 103 636 156q114 29 210 55.5t180 49.5l-35 -189q-176 -32 -485 -108q-167 -38 -309 -74t-268 -71z" />
<glyph unicode="&#x2012;" horiz-adv-x="1167" d="M222 684l71 181q430 103 636 156q114 29 210 55.5t180 49.5l-35 -189q-176 -32 -485 -108q-167 -38 -309 -74t-268 -71z" />
<glyph unicode="&#x2013;" horiz-adv-x="939" d="M272 722l42 177q84 18 191.5 44t245.5 61q103 26 176.5 46t119.5 34l-10 -179q-181 -36 -407 -89q-108 -26 -196.5 -49t-161.5 -45z" />
<glyph unicode="&#x2014;" horiz-adv-x="1418" d="M200 654l78 179q128 30 303.5 73.5t402.5 100.5q203 51 354.5 91t259.5 69l-28 -187q-190 -36 -391.5 -80t-422.5 -96q-363 -87 -556 -150z" />
<glyph unicode="&#x2018;" horiz-adv-x="662" d="M397 1389l222 89l188 -242l-218 -110z" />
<glyph unicode="&#x2019;" horiz-adv-x="618" d="M315 1104l306 374l225 44l-341 -418h-190z" />
<glyph unicode="&#x201a;" horiz-adv-x="795" d="M42 -323l435 601l290 14l-488 -681z" />
<glyph unicode="&#x201c;" horiz-adv-x="1094" d="M388 1329l187 77l238 -232l-188 -83zM796 1451l232 90l215 -239l-224 -114z" />
<glyph unicode="&#x201d;" horiz-adv-x="1026" d="M306 1044l312 374l216 39l-351 -413h-177zM694 1140l380 413l203 36l-406 -434z" />
<glyph unicode="&#x201e;" horiz-adv-x="1413" d="M68 -355l442 587l271 12l-496 -662zM568 -305l532 651l265 6l-566 -687z" />
<glyph unicode="&#x2022;" horiz-adv-x="1516" d="M346 698q46 142 230 282q183 140 404 199q237 67 398 13t149 -207q-14 -161 -227 -334q-214 -173 -490 -229q-266 -56 -391 33q-124 88 -73 243z" />
<glyph unicode="&#x2026;" horiz-adv-x="2159" d="M108 -135l116 302l404 60l-88 -302zM801 27l68 325l465 102l-56 -338zM1505 63l50 331l534 116l6 -331z" />
<glyph unicode="&#x202f;" horiz-adv-x="379" />
<glyph unicode="&#x2039;" horiz-adv-x="937" d="M233 865q125 90 259 204t281 254l200 -28q-151 -118 -257.5 -207t-173.5 -153q88 -63 339 -162l-226 -167q-103 72 -207 136.5t-215 122.5z" />
<glyph unicode="&#x203a;" horiz-adv-x="939" d="M331 602q159 127 270.5 221t180.5 160q-87 60 -287 131l188 134q93 -48 200.5 -94t232.5 -94q-261 -194 -591 -519z" />
<glyph unicode="&#x205f;" horiz-adv-x="474" />
<glyph unicode="&#x20ac;" horiz-adv-x="2393" d="M201 331l45 159q37 8 93.5 19t131.5 25q7 90 45 176q-34 -8 -84.5 -21.5t-117.5 -31.5l84 172l214 52q72 103 163.5 195.5t205.5 174.5q246 180 542 266q558 166 844 -7l-417 -220q-157 84 -456 4q-293 -82 -481 -311l325 84q66 16 107.5 27t60.5 17l-43 -179 q-114 -22 -250.5 -52t-303.5 -68q-8 -17 -14 -32t-8 -27q-20 -64 -14 -132l66 16q140 31 269.5 63.5t254.5 67.5l-29 -179q-90 -14 -217.5 -38t-299.5 -58q119 -170 426 -107q432 82 630 363l472 -29q-352 -553 -1180 -688q-368 -63 -588 64q-177 103 -206 302 q-69 -16 -135 -32.5t-135 -34.5z" />
<glyph unicode="&#x2122;" horiz-adv-x="971" d="M367 1319l15 46q42 11 79 20.5t69 17.5q118 37 185 63l-11 -48q-26 -10 -61 -21t-80 -23q-5 -20 -9 -34t-6 -22l-13 -52q-14 -51 -24 -114l-95 -36q10 24 20.5 56t23.5 74q15 59 21 101q-11 -3 -39.5 -10t-74.5 -18zM650 1183q65 144 85 290l87 17l73 -111l140 174l91 36 l-7 -75q-8 -73 -7.5 -123.5t8.5 -79.5l-115 -28q2 11 4 25t4 30l7 29q10 81 -147 -109l-73 145l-44 -191z" />
<glyph unicode="&#xe000;" horiz-adv-x="1665" d="M0 0v1665h1665v-1665h-1665z" />
</font>
</defs>
</svg>
